<svg width="228" height="121" viewBox="0 0 228 121" fill="none" xmlns="http://www.w3.org/2000/svg">
<g clip-path="url(#clip0)">
<path d="M26.0571 119.271H22.7993V121H26.0571V119.271Z" fill="#10100F"/>
<path d="M228 117.542H224.743V119.271H228V117.542Z" fill="#2A2A28"/>
<path d="M211.714 117.542H208.457V119.271H211.714V117.542Z" fill="#D6AE82"/>
<path d="M19.5427 117.542H16.2858V119.271H19.5427V117.542Z" fill="#D7AE82"/>
<path d="M3.25692 117.542H0V119.271H3.25692V117.542Z" fill="#2A2A28"/>
<path d="M214.973 114.086H211.715V115.814H214.973V114.086Z" fill="#93979D"/>
<path d="M16.2855 114.086H13.0286V115.814H16.2855V114.086Z" fill="#94989D"/>
<path d="M52.1145 107.172H48.8575V108.9H52.1145V107.172Z" fill="#957E6C"/>
<path d="M45.6008 105.443H42.343V107.172H45.6008V105.443Z" fill="#282926"/>
<path d="M110.743 103.714H107.485V105.442H110.743V103.714Z" fill="#B07E62"/>
<path d="M35.8289 43.2142H32.5712V44.9429H35.8289V43.2142Z" fill="#2A2A28"/>
<path d="M228 20.7425H224.743V22.4712H228V20.7425Z" fill="#10100F"/>
<path d="M162.858 20.7425H159.6V22.4712H162.858V20.7425Z" fill="#8E7A6B"/>
<path d="M3.25692 19.0138H0V20.7419H3.25692V19.0138Z" fill="#292927"/>
<path d="M166.114 17.2851H162.857V19.0138H166.114V17.2851Z" fill="#8A796C"/>
<path d="M136.8 17.2851H133.543V19.0138H136.8V17.2851Z" fill="#8F7B6C"/>
<path d="M159.599 15.5573H156.342V17.2859H159.599V15.5573Z" fill="#977E6D"/>
<path d="M185.657 22.4712V20.7425V19.0146V17.2857H182.401V15.5573H179.143H175.885H172.628V17.2857H169.371V19.0146H166.114H162.857V20.7425H166.114V22.4712H162.857V24.2001H159.599V22.4712H156.342V20.7425V19.0146H153.086V17.2857V15.5573H149.829H146.572V17.2857H143.314V19.0146H140.057V20.7425H136.8V22.4712H133.543H130.286V20.7425H127.028V19.0146H123.771H120.514H117.257H114V17.2857H110.743V19.0146H107.485H104.229H100.971H97.7141H94.4571H91.1994H87.943H84.6856H81.4284H78.1714H74.9137H71.6568H68.3999V20.7425V22.4712H65.1429V24.2001H61.8857V25.9285H58.628V27.6572H55.3711H52.1142V25.9285V24.2001H48.8572V22.4712V20.7425H45.6001V19.0146H42.3426V20.7425V22.4712V24.2001V25.9285V27.6572V29.3853V31.114V32.8427V34.5714V36.3001H39.0848V38.0282V39.7569V41.4855V43.2142V44.9429V46.6716V48.4003V50.1284V51.8571V53.5858V55.3144V57.0431V58.7718V60.4999V62.2283V63.9573V65.686V67.4147V69.1428V70.8715V72.5999V74.3286V76.0575V77.7854V79.5141V81.2427V82.9714V84.7001V86.4291V88.1569V89.8856V91.6143V93.343V95.0716V96.8006V98.529V100.257H42.3426V98.529H45.6001V96.8006H48.8572H52.1142H55.3711H58.628H61.8857H65.1429H68.3999V98.529H71.6568V100.257H74.9137H78.1714V101.986H81.4284H84.6856H87.943H91.1994H94.4571H97.7141H100.971V100.257H104.229H107.485H110.743H114H117.257H120.514H123.771H127.028H130.286H133.543V98.529H136.8V96.8006H140.057H143.314H146.572H149.829V98.529V100.257H153.086H156.342H159.599H162.857V98.529V96.8006H166.114V95.0716V93.343H169.371V91.6143H172.628V93.343H175.885V95.0716V96.8006H179.143V98.529V100.257H182.401H185.657V98.529V96.8006V95.0716V93.343V91.6143V89.8856V88.1569V86.4291H188.914V84.7001V82.9714V81.2427V79.5141V77.7854V76.0575V74.3286V72.5999V70.8715V69.1428V67.4147V65.686V63.9573V62.2283V60.4999V58.7718V57.0431V55.3144V53.5858V51.8571V50.1284V48.4003V46.6716V44.9429V43.2142V41.4855V39.7569V38.0282V36.3001V34.5714V32.8427V31.114V29.3853V27.6572V25.9285V24.2001V22.4712H185.657Z" fill="#C78D61"/>
<path d="M58.6279 19.0152H55.371V20.7433H58.6279V19.0152Z" fill="#C78D61"/>
<path d="M68.0878 61.6692C68.0878 59.9692 68.4795 58.4442 69.2628 57.0942C70.0628 55.7442 71.1378 54.6942 72.4878 53.9442C73.8545 53.1775 75.3462 52.7942 76.9628 52.7942C78.8128 52.7942 80.4545 53.2525 81.8878 54.1692C83.3378 55.0692 84.3878 56.3525 85.0378 58.0192H81.6128C81.1628 57.1025 80.5378 56.4192 79.7378 55.9692C78.9378 55.5192 78.0128 55.2942 76.9628 55.2942C75.8128 55.2942 74.7878 55.5525 73.8878 56.0692C72.9878 56.5858 72.2795 57.3275 71.7628 58.2942C71.2628 59.2608 71.0128 60.3858 71.0128 61.6692C71.0128 62.9525 71.2628 64.0775 71.7628 65.0442C72.2795 66.0108 72.9878 66.7608 73.8878 67.2942C74.7878 67.8108 75.8128 68.0692 76.9628 68.0692C78.0128 68.0692 78.9378 67.8442 79.7378 67.3942C80.5378 66.9442 81.1628 66.2608 81.6128 65.3442H85.0378C84.3878 67.0108 83.3378 68.2942 81.8878 69.1942C80.4545 70.0942 78.8128 70.5442 76.9628 70.5442C75.3295 70.5442 73.8378 70.1692 72.4878 69.4192C71.1378 68.6525 70.0628 67.5942 69.2628 66.2442C68.4795 64.8942 68.0878 63.3692 68.0878 61.6692ZM94.3488 70.6192C93.0488 70.6192 91.8738 70.3275 90.8238 69.7442C89.7738 69.1442 88.9488 68.3108 88.3488 67.2442C87.7488 66.1608 87.4488 64.9108 87.4488 63.4942C87.4488 62.0942 87.7571 60.8525 88.3738 59.7692C88.9904 58.6858 89.8321 57.8525 90.8988 57.2692C91.9654 56.6858 93.1571 56.3942 94.4738 56.3942C95.7904 56.3942 96.9821 56.6858 98.0488 57.2692C99.1154 57.8525 99.9571 58.6858 100.574 59.7692C101.19 60.8525 101.499 62.0942 101.499 63.4942C101.499 64.8942 101.182 66.1358 100.549 67.2192C99.9154 68.3025 99.0488 69.1442 97.9488 69.7442C96.8654 70.3275 95.6654 70.6192 94.3488 70.6192ZM94.3488 68.1442C95.0821 68.1442 95.7654 67.9692 96.3988 67.6192C97.0488 67.2692 97.5738 66.7442 97.9738 66.0442C98.3738 65.3442 98.5738 64.4942 98.5738 63.4942C98.5738 62.4942 98.3821 61.6525 97.9988 60.9692C97.6154 60.2692 97.1071 59.7442 96.4738 59.3942C95.8404 59.0442 95.1571 58.8692 94.4238 58.8692C93.6904 58.8692 93.0071 59.0442 92.3738 59.3942C91.7571 59.7442 91.2654 60.2692 90.8988 60.9692C90.5321 61.6525 90.3488 62.4942 90.3488 63.4942C90.3488 64.9775 90.7238 66.1275 91.4738 66.9442C92.2404 67.7442 93.1988 68.1442 94.3488 68.1442ZM111.266 56.3942C112.349 56.3942 113.316 56.6192 114.166 57.0692C115.033 57.5192 115.708 58.1858 116.191 59.0692C116.674 59.9525 116.916 61.0192 116.916 62.2692V70.3942H114.091V62.6942C114.091 61.4608 113.783 60.5192 113.166 59.8692C112.549 59.2025 111.708 58.8692 110.641 58.8692C109.574 58.8692 108.724 59.2025 108.091 59.8692C107.474 60.5192 107.166 61.4608 107.166 62.6942V70.3942H104.316V56.6192H107.166V58.1942C107.633 57.6275 108.224 57.1858 108.941 56.8692C109.674 56.5525 110.449 56.3942 111.266 56.3942ZM127.502 56.3942C128.585 56.3942 129.552 56.6192 130.402 57.0692C131.268 57.5192 131.943 58.1858 132.427 59.0692C132.91 59.9525 133.152 61.0192 133.152 62.2692V70.3942H130.327V62.6942C130.327 61.4608 130.018 60.5192 129.402 59.8692C128.785 59.2025 127.943 58.8692 126.877 58.8692C125.81 58.8692 124.96 59.2025 124.327 59.8692C123.71 60.5192 123.402 61.4608 123.402 62.6942V70.3942H120.552V56.6192H123.402V58.1942C123.868 57.6275 124.46 57.1858 125.177 56.8692C125.91 56.5525 126.685 56.3942 127.502 56.3942ZM149.412 63.1692C149.412 63.6858 149.379 64.1525 149.312 64.5692H138.787C138.87 65.6692 139.279 66.5525 140.012 67.2192C140.745 67.8858 141.645 68.2192 142.712 68.2192C144.245 68.2192 145.329 67.5775 145.962 66.2942H149.037C148.62 67.5608 147.862 68.6025 146.762 69.4192C145.679 70.2192 144.329 70.6192 142.712 70.6192C141.395 70.6192 140.212 70.3275 139.162 69.7442C138.129 69.1442 137.312 68.3108 136.712 67.2442C136.129 66.1608 135.837 64.9108 135.837 63.4942C135.837 62.0775 136.12 60.8358 136.687 59.7692C137.27 58.6858 138.079 57.8525 139.112 57.2692C140.162 56.6858 141.362 56.3942 142.712 56.3942C144.012 56.3942 145.17 56.6775 146.187 57.2442C147.204 57.8108 147.995 58.6108 148.562 59.6442C149.129 60.6608 149.412 61.8358 149.412 63.1692ZM146.437 62.2692C146.42 61.2192 146.045 60.3775 145.312 59.7442C144.579 59.1108 143.67 58.7942 142.587 58.7942C141.604 58.7942 140.762 59.1108 140.062 59.7442C139.362 60.3608 138.945 61.2025 138.812 62.2692H146.437ZM151.267 63.4942C151.267 62.0775 151.55 60.8358 152.117 59.7692C152.7 58.6858 153.5 57.8525 154.517 57.2692C155.533 56.6858 156.7 56.3942 158.017 56.3942C159.683 56.3942 161.058 56.7942 162.142 57.5942C163.242 58.3775 163.983 59.5025 164.367 60.9692H161.292C161.042 60.2858 160.642 59.7525 160.092 59.3692C159.542 58.9858 158.85 58.7942 158.017 58.7942C156.85 58.7942 155.917 59.2108 155.217 60.0442C154.533 60.8608 154.192 62.0108 154.192 63.4942C154.192 64.9775 154.533 66.1358 155.217 66.9692C155.917 67.8025 156.85 68.2192 158.017 68.2192C159.667 68.2192 160.758 67.4942 161.292 66.0442H164.367C163.967 67.4442 163.217 68.5608 162.117 69.3942C161.017 70.2108 159.65 70.6192 158.017 70.6192C156.7 70.6192 155.533 70.3275 154.517 69.7442C153.5 69.1442 152.7 68.3108 152.117 67.2442C151.55 66.1608 151.267 64.9108 151.267 63.4942ZM170.532 58.9442V66.5692C170.532 67.0858 170.648 67.4608 170.882 67.6942C171.132 67.9108 171.548 68.0192 172.132 68.0192H173.882V70.3942H171.632C170.348 70.3942 169.365 70.0942 168.682 69.4942C167.998 68.8942 167.657 67.9192 167.657 66.5692V58.9442H166.032V56.6192H167.657V53.1942H170.532V56.6192H173.882V58.9442H170.532Z" fill="white"/>
<path d="M61.886 15.5573H58.6283V17.2859H61.886V15.5573Z" fill="#9BA0A6"/>
<path d="M45.6008 13.8281H42.343V15.5568H45.6008V13.8281Z" fill="#B17D60"/>
<path d="M42.3431 100.257H39.0854V98.5286V96.8002V95.0712V93.3425V91.6138V89.8852V88.1565V86.4286V84.6997V82.971V81.2423V79.5136V77.7849V76.0571V74.3281V72.5994V70.871V69.1424V67.4142V65.6855V63.9569V62.2279V60.4995V58.7714V57.0427V55.314V53.5853V51.8566V50.128V48.3998V46.6712V44.9425V43.2138V41.4851V39.7564V38.0277V36.2996H42.3431V34.5709V32.8422V31.1136V29.3849V27.6568V25.9281V24.1997V22.4707V20.742V19.0142H45.6006V20.742H48.8578V22.4707V24.1997H52.1147V25.9281V27.6568H55.3716H58.6285V25.9281H61.8863V24.1997H65.1434V22.4707H68.4004V20.742V19.0142H71.6573H74.9142H78.172H81.4289H84.6861H87.9435H91.1999H94.4576H97.7146H100.971H104.229H107.486H110.743V17.2852H114.001V19.0142H117.258H120.515H123.771H127.029V20.742H130.287V22.4707H133.543H136.8V20.742H140.058V19.0142H143.314V17.2852H146.572V15.5568H149.829H153.086V17.2852V19.0142H156.343V20.742V22.4707H159.6V20.742V19.0142V17.2852H156.343V15.5568V13.8281H153.086H149.829H146.572H143.314H140.058H136.8V15.5568V17.2852V19.0142H133.543V17.2852V15.5568H130.287V13.8281H127.029H123.771H120.515H117.258H114.001H110.743H107.486H104.229H100.971H97.7146H94.4576H91.1999H87.9435H84.6861H81.4289H78.172H74.9142H71.6573H68.4004H65.1434V15.5568H61.8863V17.2852V19.0142H58.6285V20.742H55.3716V19.0142V17.2852V15.5568V13.8281H52.1147H48.8578H45.6006V15.5568H42.3431H39.0854V13.8281H35.829V15.5568V17.2852V19.0142V20.742V22.4707V24.1997V25.9281V27.6568V29.3849V31.1136V32.8422V34.5709V36.2996V38.0277V39.7564V41.4851V43.2138V44.9425V46.6712V48.3998V50.128V51.8566V53.5853V55.314V57.0427V58.7714V60.4995V62.2279V63.9569V65.6855V67.4142V69.1424V70.871V72.5994V74.3281V76.0571V77.7849V79.5136V81.2423V82.971V84.6997V86.4286V88.1565V89.8852V91.6138V93.3425V95.0712V96.8002V98.5286V100.257V101.985V103.714V105.443V107.171V108.9H39.0854H42.3431V107.171V105.443V103.714H45.6006V101.985V100.257V98.5286H42.3431V100.257Z" fill="#B87958"/>
<path d="M149.829 96.8008H146.572H143.315H140.058H136.801V98.5292H133.544V100.257H130.287H127.029H123.772H120.515H117.258H114.001H110.743H107.486H104.229H100.972V101.986H97.7148H94.4579H91.2002H87.9438H84.6863H81.4291H78.1722V100.257H74.9145H71.6576V98.5292H68.4006V96.8008H65.1437H61.8865H58.6288H55.3719H52.1149H48.858H45.6008V98.5292H48.858V100.257V101.986V103.715V105.443V107.172H52.1149V108.901H55.3719H58.6288H61.8865V107.172V105.443V103.715H65.1437V105.443H68.4006V107.172V108.901H71.6576H74.9145H78.1722H81.4291H84.6863H87.9438H91.2002H94.4579H97.7148H100.972H104.229H107.486V107.172V105.443V103.715H110.743H114.001V105.443V107.172V108.901H117.258H120.515H123.772H127.029H130.287H133.544H136.801H140.058H143.315H146.572V107.172V105.443V103.715V101.986V100.257H149.829V98.5292V96.8008Z" fill="#B87958"/>
<path d="M162.858 22.4702H159.6V24.1988H162.858V22.4702Z" fill="#B87958"/>
<path d="M166.115 20.7427H162.858V22.4714H166.115V20.7427Z" fill="#B87958"/>
<path d="M188.915 13.8281H185.658H182.401H179.144H175.886H172.629H169.372H166.115V15.5568V17.2852V19.0142H169.372V17.2852H172.629V15.5568H175.886H179.144H182.401V17.2852H185.658V19.0142V20.742V22.4707H188.915V24.1997V25.9281V27.6568V29.3849V31.1136V32.8422V34.5709V36.2996V38.0277V39.7564V41.4851V43.2138V44.9425V46.6712V48.3998V50.128V51.8566V53.5853V55.314V57.0427V58.7714V60.4995V62.2279V63.9569V65.6855V67.4142V69.1424V70.871V72.5994V74.3281V76.0571V77.7849V79.5136V81.2423V82.971V84.6997V86.4286H185.658V88.1565V89.8852V91.6138V93.3425V95.0712V96.8002V98.5286V100.257H182.401H179.144V98.5286V96.8002H175.886V95.0712V93.3425H172.629V91.6138H169.372V93.3425H166.115V95.0712V96.8002H162.858V98.5286V100.257H159.6H156.343H153.086H149.829V101.985V103.714V105.443V107.171V108.9H153.086H156.343H159.6H162.858H166.115V107.171V105.443V103.714H169.372V105.443V107.171V108.9H172.629H175.886H179.144H182.401H185.658H188.915H192.171V107.171V105.443V103.714V101.985V100.257V98.5286V96.8002V95.0712V93.3425V91.6138V89.8852V88.1565V86.4286V84.6997V82.971V81.2423V79.5136V77.7849V76.0571V74.3281V72.5994V70.871V69.1424V67.4142V65.6855V63.9569V62.2279V60.4995V58.7714V57.0427V55.314V53.5853V51.8566V50.128V48.3998V46.6712V44.9425V43.2138V41.4851V39.7564V38.0277V36.2996V34.5709V32.8422V31.1136V29.3849V27.6568V25.9281V24.1997V22.4707V20.742V19.0142V17.2852V15.5568V13.8281H188.915Z" fill="#B87958"/>
<path d="M136.8 12.099H133.543V13.8277H136.8V12.099Z" fill="#888C91"/>
<path d="M133.543 12.099H130.286V13.8277H133.543V12.099Z" fill="#90959A"/>
<path d="M224.743 5.18506H221.486V6.91374H224.743V5.18506Z" fill="#AA9276"/>
<path d="M6.51439 5.18506H3.2572V6.91374H6.51439V5.18506Z" fill="#A89276"/>
<path d="M221.486 3.4574H218.229V5.18608H221.486V3.4574Z" fill="#A89276"/>
<path d="M205.201 3.4574H201.944V5.18608H205.201V3.4574Z" fill="#292927"/>
<path d="M9.77178 3.4574H6.51404V5.18608H9.77178V3.4574Z" fill="#AA9276"/>
<path d="M228 1.72852H224.743V3.4572H228V1.72852Z" fill="#93979D"/>
<path d="M201.943 1.72852H198.686V3.4572H201.943V1.72852Z" fill="#90959A"/>
<path d="M29.3149 1.72852H26.0571V3.4572H29.3149V1.72852Z" fill="#909499"/>
<path d="M208.458 96.8008V95.0718V93.3431V91.6145V89.8858V88.1571V86.4292V84.7003V82.9716V81.2429V79.5142V77.7856V76.0577V74.3287V72.6001V70.8717V69.143V67.4148V65.6862V63.9575V62.2285V60.5001V58.772V57.0433V55.3146V53.5859V51.8573V50.1286V48.4004V46.6718V44.9431V43.2144V41.4857V39.757V38.0284V36.3002V34.5715V32.8429V31.1142V29.3855V27.6574V25.9287V24.2003V22.4713V20.7426V19.0148V17.2858V15.5574V13.8287V12.1001V10.3711V8.64324V6.91456V5.18588V3.4572V1.72852H205.201V3.4572V5.18588V6.91456H201.944H198.687V5.18588V3.4572H195.43V5.18588V6.91456V8.64324V10.3711V12.1001V13.8287V15.5574V17.2858V19.0148V20.7426V22.4713V24.2003V25.9287V27.6574V29.3855V31.1142V32.8429V34.5715V36.3002V38.0284V39.757V41.4857V43.2144V44.9431V46.6718V48.4004V50.1286V51.8573V53.5859V55.3146V57.0433V58.772V60.5001V62.2285V63.9575V65.6862V67.4148V69.143V70.8717V72.6001V74.3287V76.0577V77.7856V79.5142V81.2429V82.9716V84.7003V86.4292V88.1571V89.8858V91.6145V93.3431V95.0718V96.8008V98.5292V100.257V101.986V103.715V105.443V107.172V108.901V110.629V112.358V114.086V115.815V117.543H198.687V119.271H201.944H205.201H208.458V117.543H211.715V115.815V114.086V112.358V110.629V108.901V107.172V105.443V103.715V101.986V100.257V98.5292V96.8008H208.458Z" fill="#E1B07A"/>
<path d="M29.3151 5.18588V6.91456H26.0573H22.7996V5.18588V3.4572V1.72852H19.5427V3.4572V5.18588V6.91456V8.64324V10.3711V12.1001V13.8287V15.5574V17.2858V19.0148V20.7426V22.4713V24.2003V25.9287V27.6574V29.3855V31.1142V32.8429V34.5715V36.3002V38.0284V39.757V41.4857V43.2144V44.9431V46.6718V48.4004V50.1286V51.8573V53.5859V55.3146V57.0433V58.772V60.5001V62.2285V63.9575V65.6862V67.4148V69.143V70.8717V72.6001V74.3287V76.0577V77.7856V79.5142V81.2429V82.9716V84.7003V86.4292V88.1571V89.8858V91.6145V93.3431V95.0718V96.8008H16.2858V98.5292V100.257V101.986V103.715V105.443V107.172V108.901V110.629V112.358V114.086V115.815V117.543H19.5427V119.271H22.7996H26.0573H29.3151V117.543H32.5715V115.815V114.086V112.358V110.629V108.901V107.172V105.443V103.715V101.986V100.257V98.5292V96.8008V95.0718V93.3431V91.6145V89.8858V88.1571V86.4292V84.7003V82.9716V81.2429V79.5142V77.7856V76.0577V74.3287V72.6001V70.8717V69.143V67.4148V65.6862V63.9575V62.2285V60.5001V58.772V57.0433V55.3146V53.5859V51.8573V50.1286V48.4004V46.6718V44.9431V43.2144V41.4857V39.757V38.0284V36.3002V34.5715V32.8429V31.1142V29.3855V27.6574V25.9287V24.2003V22.4713V20.7426V19.0148V17.2858V15.5574V13.8287V12.1001V10.3711V8.64324V6.91456V5.18588V3.4572H29.3151V5.18588Z" fill="#E1B07A"/>
<path d="M221.487 6.91456V5.18588H218.23V3.4572V1.72852H214.973V3.4572V5.18588H211.715V6.91456H208.458V8.64324V10.3711V12.1001V13.8287V15.5574V17.2858V19.0148V20.7426V22.4713V24.2003V25.9287V27.6574V29.3855V31.1142V32.8429V34.5715V36.3002V38.0284V39.757V41.4857V43.2144V44.9431V46.6718V48.4004V50.1286V51.8573V53.5859V55.3146V57.0433V58.772V60.5001V62.2285V63.9575V65.6862V67.4148V69.143V70.8717V72.6001V74.3287V76.0577V77.7856V79.5142V81.2429V82.9716V84.7003V86.4292V88.1571V89.8858V91.6145V93.3431V95.0718V96.8008H211.715V98.5292V100.257V101.986V103.715V105.443V107.172V108.901V110.629H214.973V112.358V114.086H218.23V112.358V110.629H221.487V112.358V114.086V115.815V117.543H224.744V115.815V114.086V112.358V110.629V108.901V107.172V105.443V103.715V101.986V100.257V98.5292V96.8008V95.0718V93.3431V91.6145V89.8858V88.1571V86.4292V84.7003V82.9716V81.2429V79.5142V77.7856V76.0577V74.3287V72.6001V70.8717V69.143V67.4148V65.6862V63.9575V62.2285V60.5001V58.772V57.0433V55.3146V53.5859V51.8573V50.1286V48.4004V46.6718V44.9431V43.2144V41.4857V39.757V38.0284V36.3002V34.5715V32.8429V31.1142V29.3855V27.6574V25.9287V24.2003V22.4713V20.7426V19.0148V17.2858V15.5574V13.8287V12.1001V10.3711V8.64324V6.91456H221.487Z" fill="#CEA270"/>
<path d="M16.286 5.18588H13.0291V3.4572V1.72852H9.77214V3.4572V5.18588H6.5144V6.91456H3.2572V8.64324V10.3711V12.1001V13.8287V15.5574V17.2858V19.0148V20.7426V22.4713V24.2003V25.9287V27.6574V29.3855V31.1142V32.8429V34.5715V36.3002V38.0284V39.757V41.4857V43.2144V44.9431V46.6718V48.4004V50.1286V51.8573V53.5859V55.3146V57.0433V58.772V60.5001V62.2285V63.9575V65.6862V67.4148V69.143V70.8717V72.6001V74.3287V76.0577V77.7856V79.5142V81.2429V82.9716V84.7003V86.4292V88.1571V89.8858V91.6145V93.3431V95.0718V96.8008V98.5292V100.257V101.986V103.715V105.443V107.172V108.901V110.629V112.358V114.086V115.815V117.543H6.5144V115.815V114.086V112.358V110.629H9.77214V112.358V114.086H13.0291V112.358V110.629H16.286V108.901V107.172V105.443V103.715V101.986V100.257V98.5292V96.8008H19.5429V95.0718V93.3431V91.6145V89.8858V88.1571V86.4292V84.7003V82.9716V81.2429V79.5142V77.7856V76.0577V74.3287V72.6001V70.8717V69.143V67.4148V65.6862V63.9575V62.2285V60.5001V58.772V57.0433V55.3146V53.5859V51.8573V50.1286V48.4004V46.6718V44.9431V43.2144V41.4857V39.757V38.0284V36.3002V34.5715V32.8429V31.1142V29.3855V27.6574V25.9287V24.2003V22.4713V20.7426V19.0148V17.2858V15.5574V13.8287V12.1001V10.3711V8.64324V6.91456H16.286V5.18588Z" fill="#CEA270"/>
<path d="M3.25692 1.72852H0V3.4572H3.25692V1.72852Z" fill="#92969C"/>
<path d="M218.228 0H214.971V1.72813H218.228V0Z" fill="#999DA3"/>
<path d="M205.201 0H201.944V1.72813H205.201V0Z" fill="#90959A"/>
<path d="M26.0571 0H22.7993V1.72813H26.0571V0Z" fill="#90959A"/>
<path d="M68.3999 107.172H65.1429V108.9H68.3999V107.172Z" fill="black"/>
<path d="M214.973 110.628H211.715V112.357V114.085H214.973V112.357V110.628Z" fill="black"/>
<path d="M29.3149 119.271H26.0571V121H29.3149V119.271Z" fill="black"/>
<path d="M45.6008 107.172H42.343V108.9H45.6008V107.172Z" fill="black"/>
<path d="M68.4004 107.171V105.442H65.1435V103.714H61.8864V105.442V107.171H65.1435H68.4004Z" fill="black"/>
<path d="M149.828 103.715V101.986V100.257H146.571V101.986V103.715V105.443H149.828V103.715Z" fill="black"/>
<path d="M143.315 13.8277H146.573H149.83H153.087H156.344V12.099H153.087H149.83H146.573H143.315H140.058H136.801V13.8277H140.058H143.315Z" fill="black"/>
<path d="M205.201 119.271H201.944H198.686V121H201.944H205.201H208.457H211.714V119.271H208.457H205.201Z" fill="black"/>
<path d="M16.2858 119.271V121H19.5427H22.7996V119.271H19.5427H16.2858Z" fill="black"/>
<path d="M224.743 117.542H221.486V119.271H224.743V117.542Z" fill="black"/>
<path d="M6.51439 117.542H3.2572V119.271H6.51439V117.542Z" fill="black"/>
<path d="M195.428 117.543V115.815V114.086V112.358V110.629V108.901V107.172V105.443V103.715V101.986V100.257V98.5292V96.8008V95.0718V93.3431V91.6145V89.8858V88.1571V86.4292V84.7003V82.9716V81.2429V79.5142V77.7856V76.0577V74.3287V72.6001V70.8717V69.143V67.4148V65.6862V63.9575V62.2285V60.5001V58.772V57.0433V55.3146V53.5859V51.8573V50.1286V48.4004V46.6718V44.9431V43.2144V41.4857V39.757V38.0284V36.3002V34.5715V32.8429V31.1142V29.3855V27.6574V25.9287V24.2003V22.4713V20.7426V19.0148V17.2858V15.5574V13.8287V12.1001V10.3711V8.64324V6.91456V5.18588V3.4572H198.686V1.72852H195.428H192.171V3.4572V5.18588V6.91456V8.64324V10.3711V12.1001H188.914H185.657H182.4H179.143H175.885H172.628H169.371H166.114H162.857V13.8287V15.5574V17.2858H166.114V15.5574V13.8287H169.371H172.628H175.885H179.143H182.4H185.657H188.914H192.171V15.5574V17.2858V19.0148V20.7426V22.4713V24.2003V25.9287V27.6574V29.3855V31.1142V32.8429V34.5715V36.3002V38.0284V39.757V41.4857V43.2144V44.9431V46.6718V48.4004V50.1286V51.8573V53.5859V55.3146V57.0433V58.772V60.5001V62.2285V63.9575V65.6862V67.4148V69.143V70.8717V72.6001V74.3287V76.0577V77.7856V79.5142V81.2429V82.9716V84.7003V86.4292V88.1571V89.8858V91.6145V93.3431V95.0718V96.8008V98.5292V100.257V101.986V103.715V105.443V107.172V108.901H188.914H185.657H182.4H179.143H175.885H172.628H169.371V110.629H172.628H175.885H179.143H182.4H185.657H188.914H192.171V112.358V114.086V115.815V117.543V119.271H195.428H198.686V117.543H195.428Z" fill="black"/>
<path d="M221.485 114.085V112.357V110.628H218.228V112.357V114.085H214.971V115.814V117.542H218.228H221.485V115.814V114.085Z" fill="black"/>
<path d="M3.25692 114.086V112.357V110.629V108.901V107.172V105.443V103.715V101.986V100.257V98.529V96.8006V95.0717V93.343V91.6143V89.8856V88.1569V86.4291V84.7001V82.9714V81.2428V79.5141V77.7854V76.0575V74.3286V72.5999V70.8715V69.1428V67.4147V65.686V63.9573V62.2284V60.5V58.7718V57.0431V55.3145V53.5858V51.8571V50.1284V48.4003V46.6716V44.9429V43.2143V41.4856V39.7569V38.0282V36.3001V34.5714V32.8427V31.114V29.3854V27.6572V25.9285V24.2001V22.4712V20.7425H0V22.4712V24.2001V25.9285V27.6572V29.3854V31.114V32.8427V34.5714V36.3001V38.0282V39.7569V41.4856V43.2143V44.9429V46.6716V48.4003V50.1284V51.8571V53.5858V55.3145V57.0431V58.7718V60.5V62.2284V63.9573V65.686V67.4147V69.1428V70.8715V72.5999V74.3286V76.0575V77.7854V79.5141V81.2428V82.9714V84.7001V86.4291V88.1569V89.8856V91.6143V93.343V95.0717V96.8006V98.529V100.257V101.986V103.715V105.443V107.172V108.901V110.629V112.357V114.086V115.815V117.543H3.25692V115.815V114.086Z" fill="black"/>
<path d="M9.77178 112.357V110.628H6.51404V112.357V114.085V115.814V117.542H9.77178H13.0287V115.814V114.085H9.77178V112.357Z" fill="black"/>
<path d="M16.2855 112.357V110.628H13.0286V112.357V114.085H16.2855V112.357Z" fill="black"/>
<path d="M159.6 108.901H156.343H153.086H149.829V110.629H153.086H156.343H159.6H162.858H166.115V108.901H162.858H159.6Z" fill="black"/>
<path d="M140.057 108.901H136.8H133.543H130.286H127.028H123.771H120.514H117.257H114V110.629H117.257H120.514H123.771H127.028H130.286H133.543H136.8H140.057H143.314H146.572V108.901H143.314H140.057Z" fill="black"/>
<path d="M55.3714 108.901H52.1145H48.8575V110.629H52.1145H55.3714H58.6283H61.886V108.901H58.6283H55.3714Z" fill="black"/>
<path d="M35.8293 108.901V107.172V105.443V103.715V101.986V100.257V98.5292V96.8008V95.0719V93.3432V91.6145V89.8858V88.1571V86.4293V84.7003V82.9716V81.243V79.5143V77.7856V76.0577V74.3288V72.6001V70.8717V69.143V67.4149V65.6862V63.9575V62.2286V60.5001V58.772V57.0433V55.3147V53.586V51.8573V50.1286V48.4005V46.6718V44.9431H32.5718V46.6718V48.4005V50.1286V51.8573V53.586V55.3147V57.0433V58.772V60.5001V62.2286V63.9575V65.6862V67.4149V69.143V70.8717V72.6001V74.3288V76.0577V77.7856V79.5143V81.243V82.9716V84.7003V86.4293V88.1571V89.8858V91.6145V93.3432V95.0719V96.8008V98.5292V100.257V101.986V103.715V105.443V107.172V108.901V110.629V112.358V114.086V115.815V117.543H29.3154V119.271H32.5718H35.8293V117.543V115.815V114.086V112.358V110.629H39.0856H42.3434V108.901H39.0856H35.8293Z" fill="black"/>
<path d="M169.372 105.442V103.714H166.115V105.442V107.171V108.9H169.372V107.171V105.442Z" fill="black"/>
<path d="M114 105.442V103.714H110.743V105.442H107.485V107.171V108.9H104.229H100.971H97.7141H94.4571H91.1994H87.943H84.6856H81.4284H78.1715H74.9137H71.6568H68.3999H65.1429V110.628H68.3999H71.6568H74.9137H78.1715H81.4284H84.6856H87.943H91.1994H94.4571H97.7141H100.971H104.229H107.485H110.743V108.9H114V107.171V105.442Z" fill="black"/>
<path d="M45.6008 103.714H42.343V105.442H45.6008V103.714Z" fill="black"/>
<path d="M48.8578 101.986V100.257V98.5289H45.6006V100.257V101.986V103.714H48.8578V101.986Z" fill="black"/>
<path d="M224.744 24.2005V25.9289V27.6576V29.3857V31.1144V32.8431V34.5718V36.3005V38.0286V39.7573V41.486V43.2146V44.9433V46.672V48.4007V50.1288V51.8575V53.5862V55.3149V57.0435V58.7722V60.5003V62.2288V63.9577V65.6864V67.4151V69.1432V70.8719V72.6003V74.329V76.0579V77.7858V79.5145V81.2431V82.9718V84.7005V86.4295V88.1573V89.886V91.6147V93.3434V95.0721V96.801V98.5294V100.258V101.986V103.715V105.444V107.172V108.901V110.629V112.358V114.086V115.815V117.543H228V115.815V114.086V112.358V110.629V108.901V107.172V105.444V103.715V101.986V100.258V98.5294V96.801V95.0721V93.3434V91.6147V89.886V88.1573V86.4295V84.7005V82.9718V81.2431V79.5145V77.7858V76.0579V74.329V72.6003V70.8719V69.1432V67.4151V65.6864V63.9577V62.2288V60.5003V58.7722V57.0435V55.3149V53.5862V51.8575V50.1288V48.4007V46.672V44.9433V43.2146V41.486V39.7573V38.0286V36.3005V34.5718V32.8431V31.1144V29.3857V27.6576V25.9289V24.2005V22.4716H224.744V24.2005Z" fill="black"/>
<path d="M159.6 19.0141V20.7419H162.858V19.0141V17.2851H159.6V19.0141Z" fill="black"/>
<path d="M3.25692 17.2858V15.5574V13.8287V12.1001V10.3711V8.64324V6.91456V5.18588H6.51411V3.4572H9.77186V1.72852H6.51411H3.25692V3.4572H0V5.18588V6.91456V8.64324V10.3711V12.1001V13.8287V15.5574V17.2858V19.0148H3.25692V17.2858Z" fill="black"/>
<path d="M159.599 13.8281H156.342V15.5568H159.599V13.8281Z" fill="black"/>
<path d="M65.1435 13.8277H68.4005H71.6574H74.9143H78.1721H81.429H84.6862H87.9436H91.2H94.4577H97.7147H100.972H104.229H107.486H110.743H114.001H117.258H120.515H123.771H127.029H130.287V15.5564H133.544V17.2848H136.8V15.5564V13.8277H133.544H130.287V12.099H127.029H123.771H120.515H117.258H114.001H110.743H107.486H104.229H100.972H97.7147H94.4577H91.2H87.9436H84.6862H81.429H78.1721H74.9143H71.6574H68.4005H65.1435H61.8864V13.8277V15.5564H65.1435V13.8277Z" fill="black"/>
<path d="M198.686 6.91476H201.944H205.201V5.18608H201.944V3.4574H198.686V5.18608V6.91476Z" fill="black"/>
<path d="M32.5718 5.18588V6.91456V8.64324V10.3711V12.1001V13.8287V15.5574V17.2858V19.0148V20.7426V22.4713V24.2003V25.9287V27.6574V29.3855V31.1142V32.8429V34.5715V36.3002V38.0284V39.757V41.4857V43.2144H35.8293V41.4857V39.757V38.0284V36.3002V34.5715V32.8429V31.1142V29.3855V27.6574V25.9287V24.2003V22.4713V20.7426V19.0148V17.2858V15.5574V13.8287H39.0856V15.5574H42.3434V13.8287H45.6009H48.858H52.115H55.3719V15.5574V17.2858V19.0148H58.6288H61.8865V17.2858H58.6288V15.5574V13.8287V12.1001H55.3719H52.115H48.858H45.6009H42.3434H39.0856H35.8293V10.3711V8.64324V6.91456V5.18588V3.4572V1.72852H32.5718H29.3154V3.4572H32.5718V5.18588Z" fill="black"/>
<path d="M22.7993 5.18588V6.91456H26.0571H29.3148V5.18588V3.4572H26.0571V1.72852H22.7993V3.4572V5.18588Z" fill="black"/>
<path d="M224.744 3.4572V1.72852H221.486H218.229V3.4572H221.486V5.18588H224.744V6.91456V8.64324V10.3711V12.1001V13.8287V15.5574V17.2858V19.0148V20.7426H228V19.0148V17.2858V15.5574V13.8287V12.1001V10.3711V8.64324V6.91456V5.18588V3.4572H224.744Z" fill="black"/>
<path d="M208.457 3.45681V5.18549V6.91418H211.714V5.18549H214.972V3.45681V1.72813V0H211.714H208.457H205.2V1.72813H208.457V3.45681Z" fill="black"/>
<path d="M205.201 1.72852H201.944V3.4572H205.201V1.72852Z" fill="black"/>
<path d="M19.5424 0H16.2855H13.0286V1.72813V3.45681V5.18549H16.2855V6.91418H19.5424V5.18549V3.45681V1.72813H22.7993V0H19.5424Z" fill="black"/>
<path d="M13.0288 0H9.77185V1.72813H13.0288V0Z" fill="#999DA3"/>
</g>
<defs>
<clipPath id="clip0">
<rect width="228" height="121" fill="white"/>
</clipPath>
</defs>
</svg>
