<svg width="345" height="171" viewBox="0 0 345 171" fill="none" xmlns="http://www.w3.org/2000/svg">
<path d="M130.25 87.6672H123.563V94.3334H130.25V87.6672Z" fill="white"/>
<path d="M130.25 81.0013H123.563V87.6676H130.25V81.0013Z" fill="white"/>
<path d="M130.25 74.3329H123.563V81.0011H130.25V74.3329Z" fill="white"/>
<path d="M130.25 67.6663H123.563V74.3325H130.25V67.6663Z" fill="white"/>
<path d="M130.25 61.0011H123.563V67.6673H130.25V61.0011Z" fill="white"/>
<path d="M130.25 54.3345H123.563V61.0007H130.25V54.3345Z" fill="white"/>
<path d="M130.25 47.6667H123.563V54.335H130.25V47.6667Z" fill="white"/>
<path d="M130.25 41.0002H123.563V47.6664H130.25V41.0002Z" fill="white"/>
<path d="M130.25 34.3336H123.563V40.9998H130.25V34.3336Z" fill="white"/>
<path d="M130.25 27.6659H123.563V34.3341H130.25V27.6659Z" fill="white"/>
<path d="M123.563 87.6672H116.874V94.3334H123.563V87.6672Z" fill="white"/>
<path d="M123.563 81.0013H116.874V87.6676H123.563V81.0013Z" fill="white"/>
<path d="M123.563 74.3329H116.874V81.0011H123.563V74.3329Z" fill="white"/>
<path d="M123.563 67.6663H116.874V74.3325H123.563V67.6663Z" fill="white"/>
<path d="M123.563 61.0011H116.874V67.6673H123.563V61.0011Z" fill="white"/>
<path d="M123.563 54.3345H116.874V61.0007H123.563V54.3345Z" fill="white"/>
<path d="M123.563 47.6667H116.874V54.335H123.563V47.6667Z" fill="white"/>
<path d="M123.563 41.0002H116.874V47.6664H123.563V41.0002Z" fill="white"/>
<path d="M123.563 34.3336H116.874V40.9998H123.563V34.3336Z" fill="white"/>
<path d="M123.563 27.6659H116.874V34.3341H123.563V27.6659Z" fill="white"/>
<path d="M123.563 20.9993H116.874V27.6655H123.563V20.9993Z" fill="white"/>
<path d="M116.874 81.0013H110.187V87.6676H116.874V81.0013Z" fill="white"/>
<path d="M116.874 74.3329H110.187V81.0011H116.874V74.3329Z" fill="white"/>
<path d="M116.874 67.6663H110.187V74.3325H116.874V67.6663Z" fill="white"/>
<path d="M116.874 61.0011H110.187V67.6673H116.874V61.0011Z" fill="white"/>
<path d="M116.874 54.3345H110.187V61.0007H116.874V54.3345Z" fill="white"/>
<path d="M116.874 47.6667H110.187V54.335H116.874V47.6667Z" fill="white"/>
<path d="M116.874 27.6659H110.187V34.3341H116.874V27.6659Z" fill="white"/>
<path d="M116.874 20.9993H110.187V27.6655H116.874V20.9993Z" fill="white"/>
<path d="M110.187 81.0013H103.5V87.6676H110.187V81.0013Z" fill="white"/>
<path d="M110.187 74.3329H103.5V81.0011H110.187V74.3329Z" fill="white"/>
<path d="M110.187 67.6663H103.5V74.3325H110.187V67.6663Z" fill="white"/>
<path d="M110.187 61.0011H103.5V67.6673H110.187V61.0011Z" fill="white"/>
<path d="M110.187 54.3345H103.5V61.0007H110.187V54.3345Z" fill="white"/>
<path d="M110.187 27.6659H103.5V34.3341H110.187V27.6659Z" fill="white"/>
<path d="M110.187 20.9993H103.5V27.6655H110.187V20.9993Z" fill="white"/>
<path d="M103.5 74.3329H96.813V81.0011H103.5V74.3329Z" fill="white"/>
<path d="M103.5 67.6663H96.813V74.3325H103.5V67.6663Z" fill="white"/>
<path d="M103.5 61.0011H96.813V67.6673H103.5V61.0011Z" fill="white"/>
<path d="M103.5 54.3345H96.813V61.0007H103.5V54.3345Z" fill="white"/>
<path d="M103.5 20.9993H96.813V27.6655H103.5V20.9993Z" fill="white"/>
<path d="M103.5 14.3327H96.813V20.9989H103.5V14.3327Z" fill="white"/>
<path d="M96.8128 74.3329H90.1238V81.0011H96.8128V74.3329Z" fill="white"/>
<path d="M96.8128 67.6663H90.1238V74.3325H96.8128V67.6663Z" fill="white"/>
<path d="M96.8128 61.0011H90.1238V67.6673H96.8128V61.0011Z" fill="white"/>
<path d="M96.8128 54.3345H90.1238V61.0007H96.8128V54.3345Z" fill="white"/>
<path d="M96.8128 20.9993H90.1238V27.6655H96.8128V20.9993Z" fill="white"/>
<path d="M96.8128 14.3327H90.1238V20.9989H96.8128V14.3327Z" fill="white"/>
<path d="M90.124 67.6663H83.437V74.3325H90.124V67.6663Z" fill="white"/>
<path d="M90.124 61.0011H83.437V67.6673H90.124V61.0011Z" fill="white"/>
<path d="M90.124 54.3345H83.437V61.0007H90.124V54.3345Z" fill="white"/>
<path d="M90.124 14.3327H83.437V20.9989H90.124V14.3327Z" fill="white"/>
<path d="M83.4368 67.6663H76.7498V74.3325H83.4368V67.6663Z" fill="white"/>
<path d="M83.4368 61.0011H76.7498V67.6673H83.4368V61.0011Z" fill="white"/>
<path d="M83.4368 54.3345H76.7498V61.0007H83.4368V54.3345Z" fill="white"/>
<path d="M83.4368 14.3327H76.7498V20.9989H83.4368V14.3327Z" fill="white"/>
<path d="M76.75 67.6663H70.063V74.3325H76.75V67.6663Z" fill="white"/>
<path d="M76.75 61.0011H70.063V67.6673H76.75V61.0011Z" fill="white"/>
<path d="M76.75 54.3345H70.063V61.0007H76.75V54.3345Z" fill="white"/>
<path d="M70.063 61.0011H63.374V67.6673H70.063V61.0011Z" fill="white"/>
<path d="M70.063 54.3345H63.374V61.0007H70.063V54.3345Z" fill="white"/>
<path d="M70.063 47.6667H63.374V54.335H70.063V47.6667Z" fill="white"/>
<path d="M63.3738 54.3345H56.6868V61.0007H63.3738V54.3345Z" fill="white"/>
<path d="M63.3738 47.6667H56.6868V54.335H63.3738V47.6667Z" fill="white"/>
<path d="M56.687 41.0002H50V47.6664H56.687V41.0002Z" fill="white"/>
<path d="M210.5 94.3337H203.813V101H210.5V94.3337Z" fill="white"/>
<path d="M210.5 87.6672H203.813V94.3334H210.5V87.6672Z" fill="white"/>
<path d="M210.5 81.0013H203.813V87.6676H210.5V81.0013Z" fill="white"/>
<path d="M210.5 74.3329H203.813V81.0011H210.5V74.3329Z" fill="white"/>
<path d="M210.5 67.6663H203.813V74.3325H210.5V67.6663Z" fill="white"/>
<path d="M210.5 61.0011H203.813V67.6673H210.5V61.0011Z" fill="white"/>
<path d="M210.5 54.3345H203.813V61.0007H210.5V54.3345Z" fill="white"/>
<path d="M210.5 47.6667H203.813V54.335H210.5V47.6667Z" fill="white"/>
<path d="M210.5 41.0002H203.813V47.6664H210.5V41.0002Z" fill="white"/>
<path d="M210.5 34.3336H203.813V40.9998H210.5V34.3336Z" fill="white"/>
<path d="M210.5 27.6659H203.813V34.3341H210.5V27.6659Z" fill="white"/>
<path d="M210.5 20.9993H203.813V27.6655H210.5V20.9993Z" fill="white"/>
<path d="M210.5 14.3327H203.813V20.9989H210.5V14.3327Z" fill="white"/>
<path d="M210.5 7.66748H203.813V14.3337H210.5V7.66748Z" fill="white"/>
<path d="M210.5 0.998413H203.813V7.66664H210.5V0.998413Z" fill="white"/>
<path d="M203.813 94.3337H197.124V101H203.813V94.3337Z" fill="white"/>
<path d="M203.813 87.6672H197.124V94.3334H203.813V87.6672Z" fill="white"/>
<path d="M203.813 81.0013H197.124V87.6676H203.813V81.0013Z" fill="white"/>
<path d="M203.813 74.3329H197.124V81.0011H203.813V74.3329Z" fill="white"/>
<path d="M203.813 67.6663H197.124V74.3325H203.813V67.6663Z" fill="white"/>
<path d="M203.813 61.0011H197.124V67.6673H203.813V61.0011Z" fill="white"/>
<path d="M203.813 54.3345H197.124V61.0007H203.813V54.3345Z" fill="white"/>
<path d="M203.813 47.6667H197.124V54.335H203.813V47.6667Z" fill="white"/>
<path d="M203.813 41.0002H197.124V47.6664H203.813V41.0002Z" fill="white"/>
<path d="M203.813 34.3336H197.124V40.9998H203.813V34.3336Z" fill="white"/>
<path d="M203.813 27.6659H197.124V34.3341H203.813V27.6659Z" fill="white"/>
<path d="M203.813 20.9993H197.124V27.6655H203.813V20.9993Z" fill="white"/>
<path d="M203.813 14.3327H197.124V20.9989H203.813V14.3327Z" fill="white"/>
<path d="M203.813 7.66748H197.124V14.3337H203.813V7.66748Z" fill="white"/>
<path d="M203.813 0.998413H197.124V7.66664H203.813V0.998413Z" fill="white"/>
<path d="M197.124 94.3337H190.437V101H197.124V94.3337Z" fill="white"/>
<path d="M197.124 87.6672H190.437V94.3334H197.124V87.6672Z" fill="white"/>
<path d="M197.124 81.0013H190.437V87.6676H197.124V81.0013Z" fill="white"/>
<path d="M197.124 74.3329H190.437V81.0011H197.124V74.3329Z" fill="white"/>
<path d="M197.124 67.6663H190.437V74.3325H197.124V67.6663Z" fill="white"/>
<path d="M197.124 61.0011H190.437V67.6673H197.124V61.0011Z" fill="white"/>
<path d="M197.124 54.3345H190.437V61.0007H197.124V54.3345Z" fill="white"/>
<path d="M197.124 47.6667H190.437V54.335H197.124V47.6667Z" fill="white"/>
<path d="M197.124 41.0002H190.437V47.6664H197.124V41.0002Z" fill="white"/>
<path d="M197.124 34.3336H190.437V40.9998H197.124V34.3336Z" fill="white"/>
<path d="M197.124 27.6659H190.437V34.3341H197.124V27.6659Z" fill="white"/>
<path d="M197.124 20.9993H190.437V27.6655H197.124V20.9993Z" fill="white"/>
<path d="M197.124 14.3327H190.437V20.9989H197.124V14.3327Z" fill="white"/>
<path d="M197.124 7.66748H190.437V14.3337H197.124V7.66748Z" fill="white"/>
<path d="M197.124 0.998413H190.437V7.66664H197.124V0.998413Z" fill="white"/>
<path d="M190.437 94.3337H183.75V101H190.437V94.3337Z" fill="white"/>
<path d="M190.437 87.6672H183.75V94.3334H190.437V87.6672Z" fill="white"/>
<path d="M190.437 81.0013H183.75V87.6676H190.437V81.0013Z" fill="white"/>
<path d="M190.437 74.3329H183.75V81.0011H190.437V74.3329Z" fill="white"/>
<path d="M190.437 67.6663H183.75V74.3325H190.437V67.6663Z" fill="white"/>
<path d="M190.437 61.0011H183.75V67.6673H190.437V61.0011Z" fill="white"/>
<path d="M190.437 54.3345H183.75V61.0007H190.437V54.3345Z" fill="white"/>
<path d="M190.437 47.6667H183.75V54.335H190.437V47.6667Z" fill="white"/>
<path d="M190.437 41.0002H183.75V47.6664H190.437V41.0002Z" fill="white"/>
<path d="M190.437 34.3336H183.75V40.9998H190.437V34.3336Z" fill="white"/>
<path d="M190.437 27.6659H183.75V34.3341H190.437V27.6659Z" fill="white"/>
<path d="M190.437 20.9993H183.75V27.6655H190.437V20.9993Z" fill="white"/>
<path d="M190.437 14.3327H183.75V20.9989H190.437V14.3327Z" fill="white"/>
<path d="M190.437 7.66748H183.75V14.3337H190.437V7.66748Z" fill="white"/>
<path d="M190.437 0.998413H183.75V7.66664H190.437V0.998413Z" fill="white"/>
<path d="M183.75 94.3337H177.063V101H183.75V94.3337Z" fill="white"/>
<path d="M183.75 87.6672H177.063V94.3334H183.75V87.6672Z" fill="white"/>
<path d="M183.75 81.0013H177.063V87.6676H183.75V81.0013Z" fill="white"/>
<path d="M183.75 74.3329H177.063V81.0011H183.75V74.3329Z" fill="white"/>
<path d="M183.75 67.6663H177.063V74.3325H183.75V67.6663Z" fill="white"/>
<path d="M183.75 61.0011H177.063V67.6673H183.75V61.0011Z" fill="white"/>
<path d="M183.75 54.3345H177.063V61.0007H183.75V54.3345Z" fill="white"/>
<path d="M183.75 47.6667H177.063V54.335H183.75V47.6667Z" fill="white"/>
<path d="M183.75 41.0002H177.063V47.6664H183.75V41.0002Z" fill="white"/>
<path d="M183.75 34.3336H177.063V40.9998H183.75V34.3336Z" fill="white"/>
<path d="M183.75 27.6659H177.063V34.3341H183.75V27.6659Z" fill="white"/>
<path d="M183.75 20.9993H177.063V27.6655H183.75V20.9993Z" fill="white"/>
<path d="M183.75 14.3327H177.063V20.9989H183.75V14.3327Z" fill="white"/>
<path d="M183.75 7.66748H177.063V14.3337H183.75V7.66748Z" fill="white"/>
<path d="M183.75 0.998413H177.063V7.66664H183.75V0.998413Z" fill="white"/>
<path d="M177.063 94.3337H170.374V101H177.063V94.3337Z" fill="white"/>
<path d="M177.063 87.6672H170.374V94.3334H177.063V87.6672Z" fill="white"/>
<path d="M177.063 81.0013H170.374V87.6676H177.063V81.0013Z" fill="white"/>
<path d="M177.063 74.3329H170.374V81.0011H177.063V74.3329Z" fill="white"/>
<path d="M177.063 67.6663H170.374V74.3325H177.063V67.6663Z" fill="white"/>
<path d="M177.063 61.0011H170.374V67.6673H177.063V61.0011Z" fill="white"/>
<path d="M177.063 54.3345H170.374V61.0007H177.063V54.3345Z" fill="white"/>
<path d="M177.063 47.6667H170.374V54.335H177.063V47.6667Z" fill="white"/>
<path d="M177.063 41.0002H170.374V47.6664H177.063V41.0002Z" fill="white"/>
<path d="M177.063 34.3336H170.374V40.9998H177.063V34.3336Z" fill="white"/>
<path d="M177.063 27.6659H170.374V34.3341H177.063V27.6659Z" fill="white"/>
<path d="M177.063 20.9993H170.374V27.6655H177.063V20.9993Z" fill="white"/>
<path d="M177.063 14.3327H170.374V20.9989H177.063V14.3327Z" fill="white"/>
<path d="M177.063 7.66748H170.374V14.3337H177.063V7.66748Z" fill="white"/>
<path d="M170.374 94.3337H163.687V101H170.374V94.3337Z" fill="white"/>
<path d="M170.374 87.6672H163.687V94.3334H170.374V87.6672Z" fill="white"/>
<path d="M170.374 81.0013H163.687V87.6676H170.374V81.0013Z" fill="white"/>
<path d="M170.374 74.3329H163.687V81.0011H170.374V74.3329Z" fill="white"/>
<path d="M170.374 67.6663H163.687V74.3325H170.374V67.6663Z" fill="white"/>
<path d="M170.374 61.0011H163.687V67.6673H170.374V61.0011Z" fill="white"/>
<path d="M170.374 54.3345H163.687V61.0007H170.374V54.3345Z" fill="white"/>
<path d="M170.374 47.6667H163.687V54.335H170.374V47.6667Z" fill="white"/>
<path d="M170.374 41.0002H163.687V47.6664H170.374V41.0002Z" fill="white"/>
<path d="M170.374 34.3336H163.687V40.9998H170.374V34.3336Z" fill="white"/>
<path d="M170.374 27.6659H163.687V34.3341H170.374V27.6659Z" fill="white"/>
<path d="M170.374 20.9993H163.687V27.6655H170.374V20.9993Z" fill="white"/>
<path d="M170.374 14.3327H163.687V20.9989H170.374V14.3327Z" fill="white"/>
<path d="M170.374 7.66748H163.687V14.3337H170.374V7.66748Z" fill="white"/>
<path d="M163.687 94.3337H157V101H163.687V94.3337Z" fill="white"/>
<path d="M163.687 87.6672H157V94.3334H163.687V87.6672Z" fill="white"/>
<path d="M163.687 81.0013H157V87.6676H163.687V81.0013Z" fill="white"/>
<path d="M163.687 74.3329H157V81.0011H163.687V74.3329Z" fill="white"/>
<path d="M163.687 67.6663H157V74.3325H163.687V67.6663Z" fill="white"/>
<path d="M163.687 61.0011H157V67.6673H163.687V61.0011Z" fill="white"/>
<path d="M163.687 54.3345H157V61.0007H163.687V54.3345Z" fill="white"/>
<path d="M163.687 47.6667H157V54.335H163.687V47.6667Z" fill="white"/>
<path d="M163.687 41.0002H157V47.6664H163.687V41.0002Z" fill="white"/>
<path d="M163.687 34.3336H157V40.9998H163.687V34.3336Z" fill="white"/>
<path d="M163.687 27.6659H157V34.3341H163.687V27.6659Z" fill="white"/>
<path d="M163.687 20.9993H157V27.6655H163.687V20.9993Z" fill="white"/>
<path d="M163.687 14.3327H157V20.9989H163.687V14.3327Z" fill="white"/>
<path d="M163.687 7.66748H157V14.3337H163.687V7.66748Z" fill="white"/>
<path d="M157 94.3337H150.313V101H157V94.3337Z" fill="white"/>
<path d="M157 87.6672H150.313V94.3334H157V87.6672Z" fill="white"/>
<path d="M157 81.0013H150.313V87.6676H157V81.0013Z" fill="white"/>
<path d="M157 74.3329H150.313V81.0011H157V74.3329Z" fill="white"/>
<path d="M157 67.6663H150.313V74.3325H157V67.6663Z" fill="white"/>
<path d="M157 61.0011H150.313V67.6673H157V61.0011Z" fill="white"/>
<path d="M157 54.3345H150.313V61.0007H157V54.3345Z" fill="white"/>
<path d="M157 47.6667H150.313V54.335H157V47.6667Z" fill="white"/>
<path d="M157 41.0002H150.313V47.6664H157V41.0002Z" fill="white"/>
<path d="M157 34.3336H150.313V40.9998H157V34.3336Z" fill="white"/>
<path d="M157 27.6659H150.313V34.3341H157V27.6659Z" fill="white"/>
<path d="M157 20.9993H150.313V27.6655H157V20.9993Z" fill="white"/>
<path d="M157 14.3327H150.313V20.9989H157V14.3327Z" fill="white"/>
<path d="M150.313 87.6672H143.624V94.3334H150.313V87.6672Z" fill="white"/>
<path d="M150.313 81.0013H143.624V87.6676H150.313V81.0013Z" fill="white"/>
<path d="M150.313 74.3329H143.624V81.0011H150.313V74.3329Z" fill="white"/>
<path d="M150.313 67.6663H143.624V74.3325H150.313V67.6663Z" fill="white"/>
<path d="M150.313 61.0011H143.624V67.6673H150.313V61.0011Z" fill="white"/>
<path d="M150.313 54.3345H143.624V61.0007H150.313V54.3345Z" fill="white"/>
<path d="M150.313 47.6667H143.624V54.335H150.313V47.6667Z" fill="white"/>
<path d="M150.313 41.0002H143.624V47.6664H150.313V41.0002Z" fill="white"/>
<path d="M150.313 34.3336H143.624V40.9998H150.313V34.3336Z" fill="white"/>
<path d="M150.313 27.6659H143.624V34.3341H150.313V27.6659Z" fill="white"/>
<path d="M150.313 20.9993H143.624V27.6655H150.313V20.9993Z" fill="white"/>
<path d="M143.624 87.6672H136.937V94.3334H143.624V87.6672Z" fill="white"/>
<path d="M143.624 81.0013H136.937V87.6676H143.624V81.0013Z" fill="white"/>
<path d="M143.624 74.3329H136.937V81.0011H143.624V74.3329Z" fill="white"/>
<path d="M143.624 67.6663H136.937V74.3325H143.624V67.6663Z" fill="white"/>
<path d="M143.624 61.0011H136.937V67.6673H143.624V61.0011Z" fill="white"/>
<path d="M143.624 54.3345H136.937V61.0007H143.624V54.3345Z" fill="white"/>
<path d="M143.624 47.6667H136.937V54.335H143.624V47.6667Z" fill="white"/>
<path d="M143.624 41.0002H136.937V47.6664H143.624V41.0002Z" fill="white"/>
<path d="M143.624 34.3336H136.937V40.9998H143.624V34.3336Z" fill="white"/>
<path d="M143.624 27.6659H136.937V34.3341H143.624V27.6659Z" fill="white"/>
<path d="M136.937 87.6672H130.25V94.3334H136.937V87.6672Z" fill="white"/>
<path d="M136.937 81.0013H130.25V87.6676H136.937V81.0013Z" fill="white"/>
<path d="M136.937 74.3329H130.25V81.0011H136.937V74.3329Z" fill="white"/>
<path d="M136.937 67.6663H130.25V74.3325H136.937V67.6663Z" fill="white"/>
<path d="M136.937 61.0011H130.25V67.6673H136.937V61.0011Z" fill="white"/>
<path d="M136.937 54.3345H130.25V61.0007H136.937V54.3345Z" fill="white"/>
<path d="M136.937 47.6667H130.25V54.335H136.937V47.6667Z" fill="white"/>
<path d="M136.937 41.0002H130.25V47.6664H136.937V41.0002Z" fill="white"/>
<path d="M136.937 34.3336H130.25V40.9998H136.937V34.3336Z" fill="white"/>
<path d="M136.937 27.6659H130.25V34.3341H136.937V27.6659Z" fill="white"/>
<path d="M344.25 54.3345H337.563V61.0007H344.25V54.3345Z" fill="white"/>
<path d="M337.562 61.001H330.875V67.6673H337.562V61.001Z" fill="white"/>
<path d="M330.876 67.6663H324.187V74.3325H330.876V67.6663Z" fill="white"/>
<path d="M330.876 61.001H324.187V67.6673H330.876V61.001Z" fill="white"/>
<path d="M324.187 67.6663H317.5V74.3325H324.187V67.6663Z" fill="white"/>
<path d="M324.187 61.001H317.5V67.6673H324.187V61.001Z" fill="white"/>
<path d="M317.499 74.3329H310.812V81.0011H317.499V74.3329Z" fill="white"/>
<path d="M317.499 67.6663H310.812V74.3325H317.499V67.6663Z" fill="white"/>
<path d="M310.813 74.3329H304.126V81.0011H310.813V74.3329Z" fill="white"/>
<path d="M310.813 67.6663H304.126V74.3325H310.813V67.6663Z" fill="white"/>
<path d="M304.126 81.0013H297.437V87.6676H304.126V81.0013Z" fill="white"/>
<path d="M304.126 74.3329H297.437V81.0011H304.126V74.3329Z" fill="white"/>
<path d="M304.126 67.6663H297.437V74.3325H304.126V67.6663Z" fill="white"/>
<path d="M297.437 81.0013H290.75V87.6676H297.437V81.0013Z" fill="white"/>
<path d="M297.437 74.3329H290.75V81.0011H297.437V74.3329Z" fill="white"/>
<path d="M297.437 67.6663H290.75V74.3325H297.437V67.6663Z" fill="white"/>
<path d="M290.75 87.6671H284.063V94.3333H290.75V87.6671Z" fill="white"/>
<path d="M290.75 81.0013H284.063V87.6676H290.75V81.0013Z" fill="white"/>
<path d="M290.75 74.3329H284.063V81.0011H290.75V74.3329Z" fill="white"/>
<path d="M290.75 67.6663H284.063V74.3325H290.75V67.6663Z" fill="white"/>
<path d="M290.75 61.001H284.063V67.6673H290.75V61.001Z" fill="white"/>
<path d="M80.9997 144.331H74.3127V150.998H80.9997V144.331Z" fill="#D5E9FF"/>
<path d="M74.3125 150.998H67.6255V157.666H74.3125V150.998Z" fill="#D5E9FF"/>
<path d="M74.3125 144.331H67.6255V150.998H74.3125V144.331Z" fill="white"/>
<path d="M67.6263 157.667H60.9373V164.333H67.6263V157.667Z" fill="#B6D6FA"/>
<path d="M67.6263 150.998H60.9373V157.666H67.6263V150.998Z" fill="#D5E9FF"/>
<path d="M60.9365 157.667H54.2495V164.333H60.9365V157.667Z" fill="#B6D6FA"/>
<path d="M60.9365 150.998H54.2495V157.666H60.9365V150.998Z" fill="#D5E9FF"/>
<path d="M54.2505 157.667H47.5635V164.333H54.2505V157.667Z" fill="#B6D6FA"/>
<path d="M54.2505 150.998H47.5635V157.666H54.2505V150.998Z" fill="#D5E9FF"/>
<path d="M54.2505 144.331H47.5635V150.998H54.2505V144.331Z" fill="white"/>
<path d="M47.563 164.332H40.876V170.998H47.563V164.332Z" fill="#B6D6FA"/>
<path d="M47.563 157.667H40.876V164.333H47.563V157.667Z" fill="#D5E9FF"/>
<path d="M47.563 150.998H40.876V157.666H47.563V150.998Z" fill="white"/>
<path d="M47.563 144.331H40.876V150.998H47.563V144.331Z" fill="white"/>
<path d="M47.563 137.666H40.876V144.332H47.563V137.666Z" fill="white"/>
<path d="M40.8756 164.332H34.1865V170.998H40.8756V164.332Z" fill="#B6D6FA"/>
<path d="M40.8756 157.667H34.1865V164.333H40.8756V157.667Z" fill="#D5E9FF"/>
<path d="M40.8756 150.998H34.1865V157.666H40.8756V150.998Z" fill="#B6D6FA"/>
<path d="M40.8756 144.331H34.1865V150.998H40.8756V144.331Z" fill="#B6D6FA"/>
<path d="M40.8756 137.666H34.1865V144.332H40.8756V137.666Z" fill="white"/>
<path d="M34.1872 164.332H27.5002V170.998H34.1872V164.332Z" fill="#B6D6FA"/>
<path d="M34.1872 157.667H27.5002V164.333H34.1872V157.667Z" fill="#D5E9FF"/>
<path d="M34.1872 150.998H27.5002V157.666H34.1872V150.998Z" fill="#B6D6FA"/>
<path d="M34.1872 144.331H27.5002V150.998H34.1872V144.331Z" fill="white"/>
<path d="M34.1872 137.666H27.5002V144.332H34.1872V137.666Z" fill="#B6D6FA"/>
<path d="M34.1872 131H27.5002V137.666H34.1872V131Z" fill="#B6D6FA"/>
<path d="M27.5 164.332H20.813V170.998H27.5V164.332Z" fill="#B6D6FA"/>
<path d="M27.5 157.667H20.813V164.333H27.5V157.667Z" fill="#D5E9FF"/>
<path d="M27.5 150.998H20.813V157.666H27.5V150.998Z" fill="#B6D6FA"/>
<path d="M27.5 144.331H20.813V150.998H27.5V144.331Z" fill="#B6D6FA"/>
<path d="M27.5 137.666H20.813V144.332H27.5V137.666Z" fill="white"/>
<path d="M27.5 131H20.813V137.666H27.5V131Z" fill="#B6D6FA"/>
<path d="M20.8128 164.332H14.1257V170.998H20.8128V164.332Z" fill="#B6D6FA"/>
<path d="M20.8128 157.667H14.1257V164.333H20.8128V157.667Z" fill="#D5E9FF"/>
<path d="M20.8128 150.998H14.1257V157.666H20.8128V150.998Z" fill="white"/>
<path d="M20.8128 144.331H14.1257V150.998H20.8128V144.331Z" fill="white"/>
<path d="M20.8128 137.666H14.1257V144.332H20.8128V137.666Z" fill="white"/>
<path d="M20.8128 131H14.1257V137.666H20.8128V131Z" fill="#B6D6FA"/>
<path d="M14.1263 164.332H7.43726V170.998H14.1263V164.332Z" fill="#B6D6FA"/>
<path d="M14.1263 157.667H7.43726V164.333H14.1263V157.667Z" fill="#B6D6FA"/>
<path d="M14.1263 150.998H7.43726V157.666H14.1263V150.998Z" fill="#D5E9FF"/>
<path d="M14.1263 144.331H7.43726V150.998H14.1263V144.331Z" fill="#B6D6FA"/>
<path d="M14.1263 137.666H7.43726V144.332H14.1263V137.666Z" fill="#B6D6FA"/>
<path d="M7.437 157.667H0.75V164.333H7.437V157.667Z" fill="#B6D6FA"/>
<path d="M7.437 150.998H0.75V157.666H7.437V150.998Z" fill="#B6D6FA"/>
<path d="M7.437 144.331H0.75V150.998H7.437V144.331Z" fill="#B6D6FA"/>
<path d="M284.063 94.3337H277.376V101H284.063V94.3337Z" fill="white"/>
<path d="M284.063 87.6685H277.376V94.3347H284.063V87.6685Z" fill="white"/>
<path d="M284.063 81.002H277.376V87.6682H284.063V81.002Z" fill="white"/>
<path d="M284.063 74.3342H277.376V81.0024H284.063V74.3342Z" fill="white"/>
<path d="M284.063 67.6676H277.376V74.3338H284.063V67.6676Z" fill="white"/>
<path d="M284.063 61.0011H277.376V67.6673H284.063V61.0011Z" fill="white"/>
<path d="M277.377 94.3337H270.688V101H277.377V94.3337Z" fill="white"/>
<path d="M277.377 87.6685H270.688V94.3347H277.377V87.6685Z" fill="white"/>
<path d="M277.377 81.002H270.688V87.6682H277.377V81.002Z" fill="white"/>
<path d="M277.377 74.3342H270.688V81.0024H277.377V74.3342Z" fill="white"/>
<path d="M277.377 67.6676H270.688V74.3338H277.377V67.6676Z" fill="white"/>
<path d="M277.377 61.0011H270.688V67.6673H277.377V61.0011Z" fill="white"/>
<path d="M270.687 94.3337H264V101H270.687V94.3337Z" fill="white"/>
<path d="M270.687 87.6685H264V94.3347H270.687V87.6685Z" fill="white"/>
<path d="M270.687 81.002H264V87.6682H270.687V81.002Z" fill="white"/>
<path d="M270.687 74.3342H264V81.0024H270.687V74.3342Z" fill="white"/>
<path d="M270.687 67.6676H264V74.3338H270.687V67.6676Z" fill="white"/>
<path d="M270.687 61.0011H264V67.6673H270.687V61.0011Z" fill="white"/>
<path d="M270.687 54.3352H264V61.0014H270.687V54.3352Z" fill="white"/>
<path d="M264 94.3337H257.313V101H264V94.3337Z" fill="white"/>
<path d="M264 87.6685H257.313V94.3347H264V87.6685Z" fill="white"/>
<path d="M264 81.002H257.313V87.6682H264V81.002Z" fill="white"/>
<path d="M264 74.3342H257.313V81.0024H264V74.3342Z" fill="white"/>
<path d="M264 67.6676H257.313V74.3338H264V67.6676Z" fill="white"/>
<path d="M264 61.0011H257.313V67.6673H264V61.0011Z" fill="white"/>
<path d="M264 54.3352H257.313V61.0014H264V54.3352Z" fill="white"/>
<path d="M264 47.6667H257.313V54.335H264V47.6667Z" fill="white"/>
<path d="M257.313 94.3337H250.626V101H257.313V94.3337Z" fill="white"/>
<path d="M257.313 87.6685H250.626V94.3347H257.313V87.6685Z" fill="white"/>
<path d="M257.313 81.002H250.626V87.6682H257.313V81.002Z" fill="white"/>
<path d="M257.313 74.3342H250.626V81.0024H257.313V74.3342Z" fill="white"/>
<path d="M257.313 67.6676H250.626V74.3338H257.313V67.6676Z" fill="white"/>
<path d="M257.313 61.0011H250.626V67.6673H257.313V61.0011Z" fill="white"/>
<path d="M257.313 54.3352H250.626V61.0014H257.313V54.3352Z" fill="white"/>
<path d="M257.313 47.6667H250.626V54.335H257.313V47.6667Z" fill="white"/>
<path d="M250.626 94.3337H243.937V101H250.626V94.3337Z" fill="white"/>
<path d="M250.626 87.6685H243.937V94.3347H250.626V87.6685Z" fill="white"/>
<path d="M250.626 81.002H243.937V87.6682H250.626V81.002Z" fill="white"/>
<path d="M250.626 74.3342H243.937V81.0024H250.626V74.3342Z" fill="white"/>
<path d="M250.626 67.6676H243.937V74.3338H250.626V67.6676Z" fill="white"/>
<path d="M250.626 61.0011H243.937V67.6673H250.626V61.0011Z" fill="white"/>
<path d="M250.626 54.3352H243.937V61.0014H250.626V54.3352Z" fill="white"/>
<path d="M250.626 47.6667H243.937V54.335H250.626V47.6667Z" fill="white"/>
<path d="M250.626 41.0002H243.937V47.6664H250.626V41.0002Z" fill="white"/>
<path d="M250.626 34.335H243.937V41.0012H250.626V34.335Z" fill="white"/>
<path d="M250.626 27.6659H243.937V34.3341H250.626V27.6659Z" fill="white"/>
<path d="M243.937 94.3337H237.25V101H243.937V94.3337Z" fill="white"/>
<path d="M243.937 87.6685H237.25V94.3347H243.937V87.6685Z" fill="white"/>
<path d="M243.937 81.002H237.25V87.6682H243.937V81.002Z" fill="white"/>
<path d="M243.937 74.3342H237.25V81.0024H243.937V74.3342Z" fill="white"/>
<path d="M243.937 67.6676H237.25V74.3338H243.937V67.6676Z" fill="white"/>
<path d="M243.937 61.0011H237.25V67.6673H243.937V61.0011Z" fill="white"/>
<path d="M243.937 54.3352H237.25V61.0014H243.937V54.3352Z" fill="white"/>
<path d="M243.937 47.6667H237.25V54.335H243.937V47.6667Z" fill="white"/>
<path d="M243.937 41.0002H237.25V47.6664H243.937V41.0002Z" fill="white"/>
<path d="M243.937 34.335H237.25V41.0012H243.937V34.335Z" fill="white"/>
<path d="M243.937 27.6659H237.25V34.3341H243.937V27.6659Z" fill="white"/>
<path d="M243.937 20.9993H237.25V27.6655H243.937V20.9993Z" fill="white"/>
<path d="M237.25 94.3337H230.563V101H237.25V94.3337Z" fill="white"/>
<path d="M237.25 87.6685H230.563V94.3347H237.25V87.6685Z" fill="white"/>
<path d="M237.25 81.002H230.563V87.6682H237.25V81.002Z" fill="white"/>
<path d="M237.25 74.3342H230.563V81.0024H237.25V74.3342Z" fill="white"/>
<path d="M237.25 67.6676H230.563V74.3338H237.25V67.6676Z" fill="white"/>
<path d="M237.25 61.0011H230.563V67.6673H237.25V61.0011Z" fill="white"/>
<path d="M237.25 54.3352H230.563V61.0014H237.25V54.3352Z" fill="white"/>
<path d="M237.25 47.6667H230.563V54.335H237.25V47.6667Z" fill="white"/>
<path d="M237.25 41.0002H230.563V47.6664H237.25V41.0002Z" fill="white"/>
<path d="M237.25 34.335H230.563V41.0012H237.25V34.335Z" fill="white"/>
<path d="M237.25 27.6659H230.563V34.3341H237.25V27.6659Z" fill="white"/>
<path d="M237.25 20.9993H230.563V27.6655H237.25V20.9993Z" fill="white"/>
<path d="M230.563 94.3337H223.876V101H230.563V94.3337Z" fill="white"/>
<path d="M230.563 87.6685H223.876V94.3347H230.563V87.6685Z" fill="white"/>
<path d="M230.563 81.002H223.876V87.6682H230.563V81.002Z" fill="white"/>
<path d="M230.563 74.3342H223.876V81.0024H230.563V74.3342Z" fill="white"/>
<path d="M230.563 67.6676H223.876V74.3338H230.563V67.6676Z" fill="white"/>
<path d="M230.563 61.0011H223.876V67.6673H230.563V61.0011Z" fill="white"/>
<path d="M230.563 54.3352H223.876V61.0014H230.563V54.3352Z" fill="white"/>
<path d="M230.563 47.6667H223.876V54.335H230.563V47.6667Z" fill="white"/>
<path d="M230.563 41.0002H223.876V47.6664H230.563V41.0002Z" fill="white"/>
<path d="M230.563 34.335H223.876V41.0012H230.563V34.335Z" fill="white"/>
<path d="M230.563 27.6659H223.876V34.3341H230.563V27.6659Z" fill="white"/>
<path d="M230.563 20.9993H223.876V27.6655H230.563V20.9993Z" fill="white"/>
<path d="M230.563 14.334H223.876V21.0003H230.563V14.334Z" fill="white"/>
<path d="M223.876 87.6685H217.187V94.3347H223.876V87.6685Z" fill="white"/>
<path d="M223.876 81.002H217.187V87.6682H223.876V81.002Z" fill="white"/>
<path d="M223.876 74.3342H217.187V81.0024H223.876V74.3342Z" fill="white"/>
<path d="M223.876 67.6676H217.187V74.3338H223.876V67.6676Z" fill="white"/>
<path d="M223.876 61.0011H217.187V67.6673H223.876V61.0011Z" fill="white"/>
<path d="M223.876 54.3352H217.187V61.0014H223.876V54.3352Z" fill="white"/>
<path d="M223.876 47.6667H217.187V54.335H223.876V47.6667Z" fill="white"/>
<path d="M223.876 41.0002H217.187V47.6664H223.876V41.0002Z" fill="white"/>
<path d="M223.876 34.335H217.187V41.0012H223.876V34.335Z" fill="white"/>
<path d="M223.876 27.6659H217.187V34.3341H223.876V27.6659Z" fill="white"/>
<path d="M223.876 20.9993H217.187V27.6655H223.876V20.9993Z" fill="white"/>
<path d="M223.876 14.334H217.187V21.0003H223.876V14.334Z" fill="white"/>
<path d="M223.876 7.66748H217.187V14.3337H223.876V7.66748Z" fill="white"/>
<path d="M217.187 94.3337H210.5V101H217.187V94.3337Z" fill="white"/>
<path d="M217.187 87.6685H210.5V94.3347H217.187V87.6685Z" fill="white"/>
<path d="M217.187 81.002H210.5V87.6682H217.187V81.002Z" fill="white"/>
<path d="M217.187 74.3342H210.5V81.0024H217.187V74.3342Z" fill="white"/>
<path d="M217.187 67.6676H210.5V74.3338H217.187V67.6676Z" fill="white"/>
<path d="M217.187 61.0011H210.5V67.6673H217.187V61.0011Z" fill="white"/>
<path d="M217.187 54.3352H210.5V61.0014H217.187V54.3352Z" fill="white"/>
<path d="M217.187 47.6667H210.5V54.335H217.187V47.6667Z" fill="white"/>
<path d="M217.187 41.0002H210.5V47.6664H217.187V41.0002Z" fill="white"/>
<path d="M217.187 34.335H210.5V41.0012H217.187V34.335Z" fill="white"/>
<path d="M217.187 27.6659H210.5V34.3341H217.187V27.6659Z" fill="white"/>
<path d="M217.187 20.9993H210.5V27.6655H217.187V20.9993Z" fill="white"/>
<path d="M217.187 14.334H210.5V21.0003H217.187V14.334Z" fill="white"/>
<path d="M217.187 7.66748H210.5V14.3337H217.187V7.66748Z" fill="white"/>
<path d="M337.562 61.0011H330.875V67.6673H337.562V61.0011Z" fill="#D5E9FF"/>
<path d="M330.876 67.6676H324.187V74.3338H330.876V67.6676Z" fill="#D5E9FF"/>
<path d="M324.187 67.6676H317.5V74.3338H324.187V67.6676Z" fill="#D5E9FF"/>
<path d="M317.499 74.3342H310.812V81.0024H317.499V74.3342Z" fill="#B6D6FA"/>
<path d="M317.499 67.6676H310.812V74.3338H317.499V67.6676Z" fill="#D5E9FF"/>
<path d="M310.813 74.3342H304.126V81.0024H310.813V74.3342Z" fill="#B6D6FA"/>
<path d="M310.813 67.6676H304.126V74.3338H310.813V67.6676Z" fill="#D5E9FF"/>
<path d="M304.126 81.002H297.437V87.6682H304.126V81.002Z" fill="#B6D6FA"/>
<path d="M304.126 74.3342H297.437V81.0024H304.126V74.3342Z" fill="#D5E9FF"/>
<path d="M304.126 67.6676H297.437V74.3338H304.126V67.6676Z" fill="#B6D6FA"/>
<path d="M297.437 81.002H290.75V87.6682H297.437V81.002Z" fill="#B6D6FA"/>
<path d="M297.437 74.3342H290.75V81.0024H297.437V74.3342Z" fill="#D5E9FF"/>
<path d="M297.437 67.6676H290.75V74.3338H297.437V67.6676Z" fill="#B6D6FA"/>
<path d="M290.75 87.6685H284.063V94.3347H290.75V87.6685Z" fill="#B6D6FA"/>
<path d="M290.75 81.002H284.063V87.6682H290.75V81.002Z" fill="#D5E9FF"/>
<path d="M290.75 67.6676H284.063V74.3338H290.75V67.6676Z" fill="#B6D6FA"/>
<path d="M290.75 61.0011H284.063V67.6673H290.75V61.0011Z" fill="#B6D6FA"/>
<path d="M284.063 94.3337H277.376V101H284.063V94.3337Z" fill="#B6D6FA"/>
<path d="M284.063 87.6685H277.376V94.3347H284.063V87.6685Z" fill="#B6D6FA"/>
<path d="M284.063 81.002H277.376V87.6682H284.063V81.002Z" fill="#D5E9FF"/>
<path d="M284.063 61.0011H277.376V67.6673H284.063V61.0011Z" fill="#B6D6FA"/>
<path d="M277.377 94.3337H270.688V101H277.377V94.3337Z" fill="#B6D6FA"/>
<path d="M277.377 87.6685H270.688V94.3347H277.377V87.6685Z" fill="#B6D6FA"/>
<path d="M277.377 81.002H270.688V87.6682H277.377V81.002Z" fill="#D5E9FF"/>
<path d="M277.377 61.0011H270.688V67.6673H277.377V61.0011Z" fill="#B6D6FA"/>
<path d="M270.687 94.3337H264V101H270.687V94.3337Z" fill="#B6D6FA"/>
<path d="M270.687 87.6685H264V94.3347H270.687V87.6685Z" fill="#B6D6FA"/>
<path d="M270.687 81.002H264V87.6682H270.687V81.002Z" fill="#D5E9FF"/>
<path d="M270.687 54.3352H264V61.0014H270.687V54.3352Z" fill="#B6D6FA"/>
<path d="M264 94.3337H257.313V101H264V94.3337Z" fill="#B6D6FA"/>
<path d="M264 87.6685H257.313V94.3347H264V87.6685Z" fill="#B6D6FA"/>
<path d="M264 81.002H257.313V87.6682H264V81.002Z" fill="#B6D6FA"/>
<path d="M264 74.3342H257.313V81.0024H264V74.3342Z" fill="#B6D6FA"/>
<path d="M264 67.6676H257.313V74.3338H264V67.6676Z" fill="#D5E9FF"/>
<path d="M264 47.6667H257.313V54.335H264V47.6667Z" fill="#B6D6FA"/>
<path d="M257.313 94.3337H250.626V101H257.313V94.3337Z" fill="#B6D6FA"/>
<path d="M257.313 87.6685H250.626V94.3347H257.313V87.6685Z" fill="#B6D6FA"/>
<path d="M257.313 81.002H250.626V87.6682H257.313V81.002Z" fill="#B6D6FA"/>
<path d="M257.313 74.3342H250.626V81.0024H257.313V74.3342Z" fill="#D5E9FF"/>
<path d="M257.313 47.6667H250.626V54.335H257.313V47.6667Z" fill="#B6D6FA"/>
<path d="M250.626 94.3337H243.937V101H250.626V94.3337Z" fill="#B6D6FA"/>
<path d="M250.626 87.6685H243.937V94.3347H250.626V87.6685Z" fill="#B6D6FA"/>
<path d="M250.626 81.002H243.937V87.6682H250.626V81.002Z" fill="#B6D6FA"/>
<path d="M250.626 74.3342H243.937V81.0024H250.626V74.3342Z" fill="#D5E9FF"/>
<path d="M250.626 47.6667H243.937V54.335H250.626V47.6667Z" fill="#B6D6FA"/>
<path d="M243.937 94.3337H237.25V101H243.937V94.3337Z" fill="#B6D6FA"/>
<path d="M243.937 87.6685H237.25V94.3347H243.937V87.6685Z" fill="#B6D6FA"/>
<path d="M243.937 81.002H237.25V87.6682H243.937V81.002Z" fill="#B6D6FA"/>
<path d="M243.937 74.3342H237.25V81.0024H243.937V74.3342Z" fill="#B6D6FA"/>
<path d="M243.937 67.6676H237.25V74.3338H243.937V67.6676Z" fill="#D5E9FF"/>
<path d="M243.937 47.6667H237.25V54.335H243.937V47.6667Z" fill="#B6D6FA"/>
<path d="M237.25 94.3337H230.563V101H237.25V94.3337Z" fill="#B6D6FA"/>
<path d="M237.25 87.6685H230.563V94.3347H237.25V87.6685Z" fill="#B6D6FA"/>
<path d="M237.25 81.002H230.563V87.6682H237.25V81.002Z" fill="#B6D6FA"/>
<path d="M237.25 74.3342H230.563V81.0024H237.25V74.3342Z" fill="#B6D6FA"/>
<path d="M237.25 67.6676H230.563V74.3338H237.25V67.6676Z" fill="#B6D6FA"/>
<path d="M237.25 61.0011H230.563V67.6673H237.25V61.0011Z" fill="#B6D6FA"/>
<path d="M237.25 54.3352H230.563V61.0014H237.25V54.3352Z" fill="#B6D6FA"/>
<path d="M230.563 94.3337H223.876V101H230.563V94.3337Z" fill="#B6D6FA"/>
<path d="M230.563 87.6685H223.876V94.3347H230.563V87.6685Z" fill="#B6D6FA"/>
<path d="M230.563 81.002H223.876V87.6682H230.563V81.002Z" fill="#B6D6FA"/>
<path d="M230.563 74.3342H223.876V81.0024H230.563V74.3342Z" fill="#D5E9FF"/>
<path d="M230.563 67.6676H223.876V74.3338H230.563V67.6676Z" fill="#B6D6FA"/>
<path d="M230.563 61.0011H223.876V67.6673H230.563V61.0011Z" fill="#B6D6FA"/>
<path d="M230.563 54.3352H223.876V61.0014H230.563V54.3352Z" fill="#B6D6FA"/>
<path d="M223.876 87.6685H217.187V94.3347H223.876V87.6685Z" fill="#B6D6FA"/>
<path d="M223.876 81.002H217.187V87.6682H223.876V81.002Z" fill="#B6D6FA"/>
<path d="M223.876 74.3342H217.187V81.0024H223.876V74.3342Z" fill="#B6D6FA"/>
<path d="M223.876 67.6676H217.187V74.3338H223.876V67.6676Z" fill="#D5E9FF"/>
<path d="M223.876 61.0011H217.187V67.6673H223.876V61.0011Z" fill="#D5E9FF"/>
<path d="M223.876 54.3352H217.187V61.0014H223.876V54.3352Z" fill="white"/>
<path d="M223.876 47.6667H217.187V54.335H223.876V47.6667Z" fill="#B6D6FA"/>
<path d="M223.876 41.0002H217.187V47.6664H223.876V41.0002Z" fill="#B6D6FA"/>
<path d="M223.876 34.335H217.187V41.0012H223.876V34.335Z" fill="#D5E9FF"/>
<path d="M217.187 94.3337H210.5V101H217.187V94.3337Z" fill="#B6D6FA"/>
<path d="M217.187 87.6685H210.5V94.3347H217.187V87.6685Z" fill="#B6D6FA"/>
<path d="M217.187 81.002H210.5V87.6682H217.187V81.002Z" fill="#B6D6FA"/>
<path d="M217.187 74.3342H210.5V81.0024H217.187V74.3342Z" fill="#B6D6FA"/>
<path d="M217.187 67.6676H210.5V74.3338H217.187V67.6676Z" fill="#D5E9FF"/>
<path d="M217.187 54.3352H210.5V61.0014H217.187V54.3352Z" fill="white"/>
<path d="M217.187 47.6667H210.5V54.335H217.187V47.6667Z" fill="white"/>
<path d="M217.187 34.335H210.5V41.0012H217.187V34.335Z" fill="#B6D6FA"/>
<path d="M217.187 27.6659H210.5V34.3341H217.187V27.6659Z" fill="#D5E9FF"/>
<path d="M210.5 94.3337H203.813V101H210.5V94.3337Z" fill="#B6D6FA"/>
<path d="M210.5 87.6685H203.813V94.3347H210.5V87.6685Z" fill="#B6D6FA"/>
<path d="M210.5 81.002H203.813V87.6682H210.5V81.002Z" fill="#B6D6FA"/>
<path d="M210.5 74.3342H203.813V81.0024H210.5V74.3342Z" fill="#D5E9FF"/>
<path d="M210.5 47.6667H203.813V54.335H210.5V47.6667Z" fill="white"/>
<path d="M210.5 27.6659H203.813V34.3341H210.5V27.6659Z" fill="#B6D6FA"/>
<path d="M210.5 20.9993H203.813V27.6655H210.5V20.9993Z" fill="#D5E9FF"/>
<path d="M203.813 94.3337H197.124V101H203.813V94.3337Z" fill="#B6D6FA"/>
<path d="M203.813 87.6685H197.124V94.3347H203.813V87.6685Z" fill="#B6D6FA"/>
<path d="M203.813 81.002H197.124V87.6682H203.813V81.002Z" fill="#D5E9FF"/>
<path d="M203.813 47.6667H197.124V54.335H203.813V47.6667Z" fill="white"/>
<path d="M203.813 27.6659H197.124V34.3341H203.813V27.6659Z" fill="#B6D6FA"/>
<path d="M203.813 20.9993H197.124V27.6655H203.813V20.9993Z" fill="#D5E9FF"/>
<path d="M197.124 94.3337H190.437V101H197.124V94.3337Z" fill="#B6D6FA"/>
<path d="M197.124 87.6685H190.437V94.3347H197.124V87.6685Z" fill="#B6D6FA"/>
<path d="M197.124 81.002H190.437V87.6682H197.124V81.002Z" fill="#D5E9FF"/>
<path d="M197.124 61.0011H190.437V67.6673H197.124V61.0011Z" fill="#B6D6FA"/>
<path d="M197.124 54.3352H190.437V61.0014H197.124V54.3352Z" fill="#B6D6FA"/>
<path d="M197.124 47.6667H190.437V54.335H197.124V47.6667Z" fill="white"/>
<path d="M197.124 27.6659H190.437V34.3341H197.124V27.6659Z" fill="#B6D6FA"/>
<path d="M197.124 20.9993H190.437V27.6655H197.124V20.9993Z" fill="#D5E9FF"/>
<path d="M190.437 94.3337H183.75V101H190.437V94.3337Z" fill="#B6D6FA"/>
<path d="M190.437 87.6685H183.75V94.3347H190.437V87.6685Z" fill="#B6D6FA"/>
<path d="M190.437 81.002H183.75V87.6682H190.437V81.002Z" fill="#D5E9FF"/>
<path d="M190.437 74.3342H183.75V81.0024H190.437V74.3342Z" fill="white"/>
<path d="M190.437 67.6676H183.75V74.3338H190.437V67.6676Z" fill="#B6D6FA"/>
<path d="M190.437 61.0011H183.75V67.6673H190.437V61.0011Z" fill="#D5E9FF"/>
<path d="M190.437 54.3352H183.75V61.0014H190.437V54.3352Z" fill="#D5E9FF"/>
<path d="M190.437 47.6667H183.75V54.335H190.437V47.6667Z" fill="white"/>
<path d="M190.437 27.6659H183.75V34.3341H190.437V27.6659Z" fill="#B6D6FA"/>
<path d="M190.437 20.9993H183.75V27.6655H190.437V20.9993Z" fill="#D5E9FF"/>
<path d="M183.75 94.3337H177.063V101H183.75V94.3337Z" fill="#B6D6FA"/>
<path d="M183.75 87.6685H177.063V94.3347H183.75V87.6685Z" fill="#B6D6FA"/>
<path d="M183.75 81.002H177.063V87.6682H183.75V81.002Z" fill="#D5E9FF"/>
<path d="M183.75 74.3342H177.063V81.0024H183.75V74.3342Z" fill="white"/>
<path d="M183.75 67.6676H177.063V74.3338H183.75V67.6676Z" fill="#B6D6FA"/>
<path d="M183.75 61.0011H177.063V67.6673H183.75V61.0011Z" fill="#D5E9FF"/>
<path d="M183.75 54.3352H177.063V61.0014H183.75V54.3352Z" fill="white"/>
<path d="M183.75 34.335H177.063V41.0012H183.75V34.335Z" fill="#B6D6FA"/>
<path d="M183.75 20.9993H177.063V27.6655H183.75V20.9993Z" fill="#B6D6FA"/>
<path d="M183.75 14.334H177.063V21.0003H183.75V14.334Z" fill="#D5E9FF"/>
<path d="M177.063 94.3337H170.374V101H177.063V94.3337Z" fill="#B6D6FA"/>
<path d="M177.063 87.6685H170.374V94.3347H177.063V87.6685Z" fill="#B6D6FA"/>
<path d="M177.063 81.002H170.374V87.6682H177.063V81.002Z" fill="#D5E9FF"/>
<path d="M177.063 61.0011H170.374V67.6673H177.063V61.0011Z" fill="#B6D6FA"/>
<path d="M177.063 54.3352H170.374V61.0014H177.063V54.3352Z" fill="#B6D6FA"/>
<path d="M177.063 47.6667H170.374V54.335H177.063V47.6667Z" fill="#B6D6FA"/>
<path d="M177.063 41.0002H170.374V47.6664H177.063V41.0002Z" fill="#B6D6FA"/>
<path d="M177.063 20.9993H170.374V27.6655H177.063V20.9993Z" fill="#B6D6FA"/>
<path d="M177.063 14.334H170.374V21.0003H177.063V14.334Z" fill="#D5E9FF"/>
<path d="M170.374 94.3337H163.687V101H170.374V94.3337Z" fill="#B6D6FA"/>
<path d="M170.374 87.6685H163.687V94.3347H170.374V87.6685Z" fill="#B6D6FA"/>
<path d="M170.374 81.002H163.687V87.6682H170.374V81.002Z" fill="#D5E9FF"/>
<path d="M170.374 67.6676H163.687V74.3338H170.374V67.6676Z" fill="#B6D6FA"/>
<path d="M170.374 61.0011H163.687V67.6673H170.374V61.0011Z" fill="#B6D6FA"/>
<path d="M170.374 54.3352H163.687V61.0014H170.374V54.3352Z" fill="#D5E9FF"/>
<path d="M170.374 47.6667H163.687V54.335H170.374V47.6667Z" fill="#D5E9FF"/>
<path d="M170.374 34.335H163.687V41.0012H170.374V34.335Z" fill="#B6D6FA"/>
<path d="M170.374 27.6659H163.687V34.3341H170.374V27.6659Z" fill="#D5E9FF"/>
<path d="M170.374 20.9993H163.687V27.6655H170.374V20.9993Z" fill="#B6D6FA"/>
<path d="M170.374 14.334H163.687V21.0003H170.374V14.334Z" fill="#D5E9FF"/>
<path d="M163.687 94.3337H157V101H163.687V94.3337Z" fill="#B6D6FA"/>
<path d="M163.687 87.6685H157V94.3347H163.687V87.6685Z" fill="#D5E9FF"/>
<path d="M163.687 67.6676H157V74.3338H163.687V67.6676Z" fill="#B6D6FA"/>
<path d="M163.687 61.0011H157V67.6673H163.687V61.0011Z" fill="#D5E9FF"/>
<path d="M163.687 34.335H157V41.0012H163.687V34.335Z" fill="#B6D6FA"/>
<path d="M163.687 27.6659H157V34.3341H163.687V27.6659Z" fill="#D5E9FF"/>
<path d="M163.687 20.9993H157V27.6655H163.687V20.9993Z" fill="#B6D6FA"/>
<path d="M163.687 14.334H157V21.0003H163.687V14.334Z" fill="#B6D6FA"/>
<path d="M163.687 7.66748H157V14.3337H163.687V7.66748Z" fill="#D5E9FF"/>
<path d="M157 94.3337H150.313V101H157V94.3337Z" fill="#B6D6FA"/>
<path d="M157 87.6685H150.313V94.3347H157V87.6685Z" fill="#D5E9FF"/>
<path d="M157 74.3342H150.313V81.0024H157V74.3342Z" fill="#B6D6FA"/>
<path d="M157 67.6676H150.313V74.3338H157V67.6676Z" fill="#B6D6FA"/>
<path d="M157 61.0011H150.313V67.6673H157V61.0011Z" fill="#D5E9FF"/>
<path d="M157 41.0002H150.313V47.6664H157V41.0002Z" fill="#B6D6FA"/>
<path d="M157 34.335H150.313V41.0012H157V34.335Z" fill="#B6D6FA"/>
<path d="M157 27.6659H150.313V34.3341H157V27.6659Z" fill="#D5E9FF"/>
<path d="M157 14.334H150.313V21.0003H157V14.334Z" fill="#B6D6FA"/>
<path d="M150.313 87.6685H143.624V94.3347H150.313V87.6685Z" fill="#B6D6FA"/>
<path d="M150.313 81.002H143.624V87.6682H150.313V81.002Z" fill="#D5E9FF"/>
<path d="M150.313 74.3342H143.624V81.0024H150.313V74.3342Z" fill="#B6D6FA"/>
<path d="M150.313 67.6676H143.624V74.3338H150.313V67.6676Z" fill="#D5E9FF"/>
<path d="M150.313 47.6667H143.624V54.335H150.313V47.6667Z" fill="#B6D6FA"/>
<path d="M150.313 41.0002H143.624V47.6664H150.313V41.0002Z" fill="#B6D6FA"/>
<path d="M150.313 34.335H143.624V41.0012H150.313V34.335Z" fill="#D5E9FF"/>
<path d="M143.624 87.6685H136.937V94.3347H143.624V87.6685Z" fill="#B6D6FA"/>
<path d="M143.624 81.002H136.937V87.6682H143.624V81.002Z" fill="#D5E9FF"/>
<path d="M143.624 74.3342H136.937V81.0024H143.624V74.3342Z" fill="#B6D6FA"/>
<path d="M143.624 67.6676H136.937V74.3338H143.624V67.6676Z" fill="#D5E9FF"/>
<path d="M143.624 47.6667H136.937V54.335H143.624V47.6667Z" fill="#B6D6FA"/>
<path d="M143.624 41.0002H136.937V47.6664H143.624V41.0002Z" fill="#D5E9FF"/>
<path d="M136.937 87.6685H130.25V94.3347H136.937V87.6685Z" fill="#B6D6FA"/>
<path d="M136.937 81.002H130.25V87.6682H136.937V81.002Z" fill="#D5E9FF"/>
<path d="M136.937 74.3342H130.25V81.0024H136.937V74.3342Z" fill="#B6D6FA"/>
<path d="M136.937 67.6676H130.25V74.3338H136.937V67.6676Z" fill="#D5E9FF"/>
<path d="M136.937 47.6667H130.25V54.335H136.937V47.6667Z" fill="#B6D6FA"/>
<path d="M136.937 41.0002H130.25V47.6664H136.937V41.0002Z" fill="#D5E9FF"/>
<path d="M130.25 87.6685H123.563V94.3347H130.25V87.6685Z" fill="#B6D6FA"/>
<path d="M130.25 81.002H123.563V87.6682H130.25V81.002Z" fill="#D5E9FF"/>
<path d="M130.25 74.3342H123.563V81.0024H130.25V74.3342Z" fill="#B6D6FA"/>
<path d="M130.25 67.6676H123.563V74.3338H130.25V67.6676Z" fill="#D5E9FF"/>
<path d="M130.25 47.6667H123.563V54.335H130.25V47.6667Z" fill="#B6D6FA"/>
<path d="M130.25 41.0002H123.563V47.6664H130.25V41.0002Z" fill="#D5E9FF"/>
<path d="M123.563 87.6685H116.874V94.3347H123.563V87.6685Z" fill="#B6D6FA"/>
<path d="M123.563 81.002H116.874V87.6682H123.563V81.002Z" fill="#D5E9FF"/>
<path d="M123.563 74.3342H116.874V81.0024H123.563V74.3342Z" fill="#B6D6FA"/>
<path d="M123.563 67.6676H116.874V74.3338H123.563V67.6676Z" fill="#D5E9FF"/>
<path d="M123.563 47.6667H116.874V54.335H123.563V47.6667Z" fill="#B6D6FA"/>
<path d="M123.563 41.0002H116.874V47.6664H123.563V41.0002Z" fill="#D5E9FF"/>
<path d="M116.874 81.002H110.187V87.6682H116.874V81.002Z" fill="#B6D6FA"/>
<path d="M116.874 74.3342H110.187V81.0024H116.874V74.3342Z" fill="#B6D6FA"/>
<path d="M116.874 67.6676H110.187V74.3338H116.874V67.6676Z" fill="#B6D6FA"/>
<path d="M116.874 61.0011H110.187V67.6673H116.874V61.0011Z" fill="#D5E9FF"/>
<path d="M116.874 47.6667H110.187V54.335H116.874V47.6667Z" fill="#B6D6FA"/>
<path d="M116.874 27.6659H110.187V34.3341H116.874V27.6659Z" fill="#D5E9FF"/>
<path d="M110.187 81.002H103.5V87.6682H110.187V81.002Z" fill="#B6D6FA"/>
<path d="M110.187 74.3342H103.5V81.0024H110.187V74.3342Z" fill="#D5E9FF"/>
<path d="M110.187 67.6676H103.5V74.3338H110.187V67.6676Z" fill="#B6D6FA"/>
<path d="M110.187 61.0011H103.5V67.6673H110.187V61.0011Z" fill="#D5E9FF"/>
<path d="M110.187 27.6659H103.5V34.3341H110.187V27.6659Z" fill="#D5E9FF"/>
<path d="M103.5 74.3342H96.813V81.0024H103.5V74.3342Z" fill="#B6D6FA"/>
<path d="M103.5 67.6676H96.813V74.3338H103.5V67.6676Z" fill="#B6D6FA"/>
<path d="M103.5 61.0011H96.813V67.6673H103.5V61.0011Z" fill="#D5E9FF"/>
<path d="M96.8128 74.3342H90.1238V81.0024H96.8128V74.3342Z" fill="#D5E9FF"/>
<path d="M96.8128 67.6676H90.1238V74.3338H96.8128V67.6676Z" fill="#B6D6FA"/>
<path d="M96.8128 61.0011H90.1238V67.6673H96.8128V61.0011Z" fill="#D5E9FF"/>
<path d="M90.124 67.6676H83.437V74.3338H90.124V67.6676Z" fill="#B6D6FA"/>
<path d="M90.124 61.0011H83.437V67.6673H90.124V61.0011Z" fill="#D5E9FF"/>
<path d="M83.4368 67.6676H76.7498V74.3338H83.4368V67.6676Z" fill="#B6D6FA"/>
<path d="M83.4368 61.0011H76.7498V67.6673H83.4368V61.0011Z" fill="#D5E9FF"/>
<path d="M76.75 67.6676H70.063V74.3338H76.75V67.6676Z" fill="#B6D6FA"/>
<path d="M76.75 61.0011H70.063V67.6673H76.75V61.0011Z" fill="#B6D6FA"/>
<path d="M70.063 61.0011H63.374V67.6673H70.063V61.0011Z" fill="#B6D6FA"/>
</svg>
