<svg width="372" height="148" viewBox="0 0 372 148" fill="none" xmlns="http://www.w3.org/2000/svg">
<g clip-path="url(#clip0)">
<path d="M354.999 13.6169V10.9291V8.24255V5.55432H347.319V2.86694H339.636H331.953H324.271V5.55432H316.59V8.24255H308.908H301.227V10.9291H308.908V13.6169H301.227V16.3051H293.544V13.6169H285.862V10.9291V8.24255H278.181V5.55432V2.86694H270.5H262.819V5.55432H255.135V8.24255H247.454V10.9291H239.772V13.6169H232.091H224.41V10.9291H216.726V8.24255H209.044H201.364H193.682H186.001V5.55432H178.318V8.24255H170.635H162.955H155.272H147.591H139.909H132.226H124.546H116.864H109.182H101.5H93.8172H86.136H78.4547V10.9291V13.6169H70.7734V16.3051H63.0915V18.9925H55.4083V21.6803H47.7271H40.0458V18.9925V16.3051H32.3646V13.6169V10.9291H24.6827V8.24255H17.0001V10.9291V13.6169V16.3051V18.9925V21.6803V24.3672V27.055V29.7428V32.4306V35.1185H9.31689V37.8054V40.4932V43.181V45.8688V48.5566V51.2444V53.9322V56.6192V59.307V61.9948V64.6826V67.3704V70.0582V72.7451V75.4325V78.1207V80.8085V83.4963V86.1833V88.8711V91.5585V94.2463V96.9345V99.621V102.309V104.997V107.684V110.372V113.06V115.747V118.435V121.123V123.81V126.498V129.186V131.874V134.561H17.0001V131.874H24.6827V129.186H32.3646H40.0458H47.7271H55.4083H63.0915H70.7734H78.4547V131.874H86.136V134.561H93.8172H101.5V137.249H109.182H116.864H124.546H132.226H139.909H147.591H155.272V134.561H162.955H170.635H178.318H186.001H193.682H201.364H209.044H216.726H224.41H232.091V131.874H239.772V129.186H247.454H255.135H262.819H270.5V131.874V134.561H278.181H285.862H293.544H301.227V131.874V129.186H308.908V126.498V123.81H316.59V121.123H324.271V123.81H331.953V126.498V129.186H339.636V131.874V134.561H347.319H354.999V131.874V129.186V126.498V123.81V121.123V118.435V115.747V113.06H362.681V110.372V107.684V104.997V102.309V99.621V96.9345V94.2463V91.5585V88.8711V86.1833V83.4963V80.8085V78.1207V75.4325V72.7451V70.0582V67.3704V64.6826V61.9948V59.307V56.6192V53.9322V51.2444V48.5566V45.8688V43.181V40.4932V37.8054V35.1185V32.4306V29.7428V27.055V24.3672V21.6803V18.9925V16.3051V13.6169H354.999Z" fill="#420F16"/>
<path d="M55.4082 8.24353H47.7269V10.9305H55.4082V8.24353Z" fill="#C78D61"/>
<path d="M63.0919 2.86694H55.4087V5.55474H63.0919V2.86694Z" fill="#9BA0A6"/>
<path d="M17.0011 134.56H9.31791V131.873V129.186V126.498V123.81V121.122V118.434V115.746V113.06V110.372V107.684V104.996V102.308V99.6203V96.9338V94.2456V91.5578V88.8704V86.1826V83.4957V80.8079V78.12V75.4318V72.7444V70.0575V67.3697V64.6819V61.9941V59.3063V56.6185V53.9315V51.2437V48.5559V45.8681V43.1803V40.4925V37.8047V35.1178H17.0011V32.43V29.7422V27.0544V24.3666V21.6796V18.9918V16.3044V13.6162V10.9284V8.24187H24.6837V10.9284H32.3656V13.6162V16.3044H40.0468V18.9918V21.6796H47.7281H55.4093V18.9918H63.0925V16.3044H70.7744V13.6162H78.4557V10.9284V8.24187H86.137H93.8182H101.501H109.183H116.865H124.547H132.227H139.91H147.592H155.273H162.956H170.636H178.319V5.55364H186.002V8.24187H193.683H201.365H209.045H216.727V10.9284H224.411V13.6162H232.092H239.773V10.9284H247.455V8.24187H255.136V5.55364H262.82V2.86627H270.501H278.182V5.55364V8.24187H285.863V10.9284V13.6162H293.545V10.9284V8.24187V5.55364H285.863V2.86627V0.178467H278.182H270.501H262.82H255.136H247.455H239.773V2.86627V5.55364V8.24187H232.092V5.55364V2.86627H224.411V0.178467H216.727H209.045H201.365H193.683H186.002H178.319H170.636H162.956H155.273H147.592H139.91H132.227H124.547H116.865H109.183H101.501H93.8182H86.137H78.4557H70.7744V2.86627H63.0925V5.55364V8.24187H55.4093V10.9284H47.7281V8.24187V5.55364V2.86627V0.178467H40.0468H32.3656H24.6837V2.86627H17.0011H9.31791V0.178467H1.63794V2.86627V5.55364V8.24187V10.9284V13.6162V16.3044V18.9918V21.6796V24.3666V27.0544V29.7422V32.43V35.1178V37.8047V40.4925V43.1803V45.8681V48.5559V51.2437V53.9315V56.6185V59.3063V61.9941V64.6819V67.3697V70.0575V72.7444V75.4318V78.12V80.8079V83.4957V86.1826V88.8704V91.5578V94.2456V96.9338V99.6203V102.308V104.996V107.684V110.372V113.06V115.746V118.434V121.122V123.81V126.498V129.186V131.873V134.56V137.248V139.936V142.623V145.311V147.999H9.31791H17.0011V145.311V142.623V139.936H24.6837V137.248V134.56V131.873H17.0011V134.56Z" fill="#DF734C"/>
<path d="M270.501 129.187H262.82H255.137H247.456H239.774V131.874H232.093V134.561H224.411H216.728H209.046H201.366H193.684H186.002H178.319H170.637H162.957H155.273V137.249H147.592H139.911H132.228H124.548H116.865H109.183H101.502V134.561H93.8188H86.1375V131.874H78.4563V129.187H70.775H63.0931H55.4099H47.7286H40.0474H32.3661H24.6842V131.874H32.3661V134.561V137.249V139.937V142.624V145.312H40.0474V148H47.7286H55.4099H63.0931V145.312V142.624V139.937H70.775V142.624H78.4563V145.312V148H86.1375H93.8188H101.502H109.183H116.865H124.548H132.228H139.911H147.592H155.273H162.957H170.637V145.312V142.624V139.937H178.319H186.002V142.624V145.312V148H193.684H201.366H209.046H216.728H224.411H232.093H239.774H247.456H255.137H262.82V145.312V142.624V139.937V137.249V134.561H270.501V131.874V129.187Z" fill="#DF734C"/>
<path d="M301.229 13.6154H293.545V16.3032H301.229V13.6154Z" fill="#B87958"/>
<path d="M308.91 10.9294H301.229V13.6172H308.91V10.9294Z" fill="#B87958"/>
<path d="M362.683 0.178467H355H347.32H339.637H331.955H324.273H316.592H308.91V2.86627V5.55364V8.24187H316.592V5.55364H324.273V2.86627H331.955H339.637H347.32V5.55364H355V8.24187V10.9284V13.6162H362.683V16.3044V18.9918V21.6796V24.3666V27.0544V29.7422V32.43V35.1178V37.8047V40.4925V43.1803V45.8681V48.5559V51.2437V53.9315V56.6185V59.3063V61.9941V64.6819V67.3697V70.0575V72.7444V75.4318V78.12V80.8079V83.4957V86.1826V88.8704V91.5578V94.2456V96.9338V99.6203V102.308V104.996V107.684V110.372V113.06H355V115.746V118.434V121.122V123.81V126.498V129.186V131.873V134.56H347.32H339.637V131.873V129.186H331.955V126.498V123.81H324.273V121.122H316.592V123.81H308.91V126.498V129.186H301.228V131.873V134.56H293.545H285.864H278.183H270.501V137.248V139.936V142.623V145.311V147.999H278.183H285.864H293.545H301.228H308.91V145.311V142.623V139.936H316.592V142.623V145.311V147.999H324.273H331.955H339.637H347.32H355H362.683H370.363V145.311V142.623V139.936V137.248V134.56V131.873V129.186V126.498V123.81V121.122V118.434V115.746V113.06V110.372V107.684V104.996V102.308V99.6203V96.9338V94.2456V91.5578V88.8704V86.1826V83.4957V80.8079V78.12V75.4318V72.7444V70.0575V67.3697V64.6819V61.9941V59.3063V56.6185V53.9315V51.2437V48.5559V45.8681V43.1803V40.4925V37.8047V35.1178V32.43V29.7422V27.0544V24.3666V21.6796V18.9918V16.3044V13.6162V10.9284V8.24187V5.55364V2.86627V0.178467H362.683Z" fill="#DF734C"/>
</g>
<defs>
<clipPath id="clip0">
<rect width="372" height="148" fill="white"/>
</clipPath>
</defs>
</svg>
