<svg width="348" height="82" viewBox="0 0 348 82" fill="none" xmlns="http://www.w3.org/2000/svg">
<path d="M342.108 66.3638L348 31.1835L337.127 5.87896L16.7668 0L2.66309 10.9567L3.05176e-05 33.1697L2.86664 66.8718L19.0398 80.9169L329.36 82L342.108 66.3638Z" fill="#262047"/>
<path d="M343.901 32.6819L335.06 12.1073L17.575 6.39935L6.09515 15.3179L3.91373 33.5115L6.54977 62.8846L20.0198 74.583L328.079 75.6382L338.55 62.7958L343.901 32.6819Z" fill="#9F3F33"/>
<path d="M335.06 12.1053L332.379 19.1657L340.668 34.1487L343.901 32.6799L335.06 12.1053Z" fill="#BB4B3F"/>
<path d="M335.06 12.1073L332.379 19.1678L65.5841 13.8166L20.4288 15.6373L17.5748 6.39935L335.06 12.1073Z" fill="#DF734C"/>
<path d="M20.4281 15.6373L10.2845 19.1678L6.09433 15.3179L17.5742 6.39935L20.4281 15.6373Z" fill="#BB4B3F"/>
<path d="M10.2855 19.168L6.09533 35.5782L3.91391 33.5117L6.09533 15.3181L10.2855 19.168Z" fill="#7A282A"/>
<path d="M6.09494 35.5782L8.04907 56.9246L6.54956 62.8848L3.91351 33.5116L6.09494 35.5782Z" fill="#661D22"/>
<path d="M8.04845 56.9239L20.4281 68.6963L20.019 74.5824L6.54895 62.8841L8.04845 56.9239Z" fill="#51141A"/>
<path d="M20.4285 68.697L72.3461 71.2833L325.18 69.9899L328.079 75.6384L20.0194 74.5832L20.4285 68.697Z" fill="#420F16"/>
<path d="M338.55 62.796L335.06 60.6704L325.18 69.99L328.079 75.6384L338.55 62.796Z" fill="#51141A"/>
<path d="M340.668 34.1498L335.06 60.6692L338.55 62.7948L343.901 32.681L340.668 34.1498Z" fill="#7A282A"/>
<path d="M6.24684 38.4641L6.08905 47.1454L9.22852 45.0893L6.24684 38.4641Z" fill="#420F16"/>
<path d="M6.08905 47.1466L7.70194 53.206L9.22852 45.0904L6.08905 47.1466Z" fill="#DF734C"/>
<path d="M339.64 39.422L339.136 48.0676L336.178 45.3885L339.64 39.422Z" fill="#51141A"/>
<path d="M339.136 48.07L336.686 53.4044L336.178 45.3908L339.136 48.07Z" fill="#DF734C"/>
<g clip-path="url(#clip0)">
<path d="M222.835 56.9436L227.88 33.1085L217.241 22.5019L123.1 22.4025L109.757 27.4582L107.449 37.0696L110.745 60.0539L126.324 65.6915L210.834 63.9769L222.835 56.9436Z" fill="#0B0403"/>
<path d="M218.599 55.8821L223.256 33.8835L213.436 24.094L126.549 24.0024L114.234 28.6685L112.103 37.5394L115.146 58.7528L129.524 63.956L207.523 62.3735L218.599 55.8821Z" fill="#0B0403"/>
</g>
<defs>
<clipPath id="clip0">
<rect width="117.28" height="42.6547" fill="white" transform="matrix(-0.999667 0.0257899 0.0243281 0.999704 225.962 20.3333)"/>
</clipPath>
</defs>
</svg>
